<svg width="46" height="46" viewBox="0 0 46 46" fill="none" xmlns="http://www.w3.org/2000/svg">
<circle cx="23" cy="23" r="23" fill="#0A3960"/>
<path d="M28.2804 38.0521C24.8366 45.7916 22.3056 39.6086 16.8639 37.1873C11.424 34.7668 5.13653 37.0259 8.58028 29.2864C10.828 24.2349 17.6854 20.6948 23.1253 23.1153C28.567 25.5366 30.5281 33.0006 28.2804 38.0521ZM14.4026 15.1741C14.0555 17.7808 12.3982 19.7114 10.7013 19.4858C9.00263 19.2594 7.90867 16.963 8.25571 14.3563C8.60102 11.7489 10.2584 9.81833 11.9578 10.043C13.6539 10.2703 14.7496 12.5675 14.4026 15.1741ZM39.5736 28.3266C37.8477 30.3135 35.3972 31.0101 34.0995 29.8825C32.8028 28.7575 33.151 26.232 34.8786 24.2458C36.6037 22.2606 39.0533 21.5616 40.3509 22.6891C41.6468 23.8159 41.2994 26.3396 39.5736 28.3266ZM25.8521 12.1716C25.026 15.7295 22.7074 18.2304 20.6737 17.7577C18.6408 17.2834 17.6622 14.0165 18.49 10.4594C19.3179 6.90228 21.6365 4.40142 23.6702 4.87408C25.7021 5.34596 26.68 8.61453 25.8521 12.1716ZM35.6061 18.1208C33.483 21.0933 30.3852 22.5194 28.687 21.3067C26.9888 20.094 27.3325 16.7 29.4556 13.7274C31.5778 10.7566 34.6764 9.32879 36.3746 10.5415C38.0721 11.7559 37.7291 15.1483 35.6061 18.1208Z" fill="white"/>
</svg>
