<svg width="72" height="72" viewBox="0 0 72 72" fill="none" xmlns="http://www.w3.org/2000/svg">
<rect x="2" y="2" width="68" height="68" rx="34" fill="#F0F4F7"/>
<path d="M46.6667 48V45.3333C46.6667 43.9188 46.1048 42.5623 45.1046 41.5621C44.1044 40.5619 42.7478 40 41.3333 40H30.6667C29.2522 40 27.8956 40.5619 26.8954 41.5621C25.8952 42.5623 25.3333 43.9188 25.3333 45.3333V48M41.3333 29.3333C41.3333 32.2789 38.9455 34.6667 36 34.6667C33.0545 34.6667 30.6667 32.2789 30.6667 29.3333C30.6667 26.3878 33.0545 24 36 24C38.9455 24 41.3333 26.3878 41.3333 29.3333Z" stroke="#112F45" stroke-width="2.66667" stroke-linecap="round" stroke-linejoin="round"/>
<rect x="2" y="2" width="68" height="68" rx="34" stroke="#DAE0E4" stroke-width="4"/>
</svg>
