<svg width="98" height="98" viewBox="0 0 98 98" fill="none" xmlns="http://www.w3.org/2000/svg">
<rect width="98" height="98" rx="25" fill="#0A3960"/>
<circle cx="49.595" cy="48.8016" r="42.4534" fill="#0A3960"/>
<path d="M59.3417 76.5849C52.9852 90.8705 48.3134 79.4578 38.2692 74.9886C28.2282 70.5208 16.6228 74.6907 22.9793 60.4051C27.1281 51.0811 39.7855 44.5467 49.8266 49.0145C59.8708 53.4838 63.4905 67.2608 59.3417 76.5849ZM33.726 34.3567C33.0855 39.1681 30.0263 42.7315 26.8942 42.3151C23.7588 41.8973 21.7396 37.6585 22.3802 32.8471C23.0176 28.0343 26.0767 24.4709 29.2134 24.8855C32.3442 25.3051 34.3666 29.5453 33.726 34.3567ZM80.1867 58.6334C77.0011 62.3009 72.4779 63.5866 70.0827 61.5054C67.6893 59.4288 68.3319 54.7672 71.5207 51.1012C74.7049 47.4369 79.2264 46.1466 81.6215 48.2278C84.0136 50.3076 83.3723 54.966 80.1867 58.6334ZM54.8597 28.8147C53.3348 35.3818 49.0552 39.9979 45.3014 39.1255C41.549 38.2499 39.7427 32.2199 41.2707 25.6542C42.7988 19.0885 47.0784 14.4724 50.8322 15.3448C54.5828 16.2158 56.3878 22.2489 54.8597 28.8147ZM72.8635 39.7956C68.9447 45.2823 63.2268 47.9146 60.0923 45.6762C56.9577 43.4378 57.5922 37.1731 61.5109 31.6863C65.4282 26.2028 71.1476 23.5673 74.2821 25.8057C77.4153 28.0473 76.7822 34.3089 72.8635 39.7956Z" fill="white"/>
</svg>
