<svg xmlns="http://www.w3.org/2000/svg" viewBox="0 0 750 500"><g id="freepik--background-complete--inject-14"><path d="M461.18,128.91H620.05s-14-25.56-54.94-21.84c-39.06,3.55-41.05-12.58-60.91-14.57S467.8,105.74,461.18,128.91Z" style="fill:#f5f5f5"></path><path d="M164.44,141.57H270s-9.33-17-36.49-14.51c-25.94,2.36-27.26-8.35-40.45-9.67S168.84,126.18,164.44,141.57Z" style="fill:#f5f5f5"></path><polygon points="484.18 362.74 460.23 466.72 470.36 466.7 494.36 363.72 484.18 362.74" style="fill:#e0e0e0"></polygon><polygon points="527.87 362.74 551.91 466.72 561.53 466.72 538.28 362.74 527.87 362.74" style="fill:#e0e0e0"></polygon><polygon points="468.02 284.63 481.65 356.23 497.15 356.23 482.58 284.63 468.02 284.63" style="fill:#e0e0e0"></polygon><polygon points="230.51 362.74 210.97 466.72 220.92 466.72 241.32 362.74 230.51 362.74" style="fill:#e0e0e0"></polygon><polygon points="271.58 362.74 293.92 466.15 303.74 466.15 282.18 362.74 271.58 362.74" style="fill:#e0e0e0"></polygon><polygon points="214.34 284.63 227.98 356.23 243.47 356.23 228.91 284.63 214.34 284.63" style="fill:#e0e0e0"></polygon><polygon points="183.66 278.13 186.45 291.14 497.61 291.14 493.98 278.13 183.66 278.13" style="fill:#ebebeb"></polygon><polygon points="189.61 303.4 192.89 316.42 501.95 316.42 499.14 303.4 189.61 303.4" style="fill:#ebebeb"></polygon><polygon points="195.75 329.57 198.81 342.59 506.91 342.59 504 329.57 195.75 329.57" style="fill:#ebebeb"></polygon><rect x="219.3" y="356.23" width="332.24" height="13.02" style="fill:#ebebeb"></rect><rect x="644.58" y="256.93" width="17.27" height="208.68" style="fill:#e0e0e0"></rect><rect x="648.9" y="49.26" width="8.64" height="230.61" style="fill:#e0e0e0"></rect><circle cx="653.22" cy="57.24" r="26.71" transform="translate(470.97 687.12) rotate(-78.87)" style="fill:#ebebeb"></circle><path d="M658.93,86.05H647.08a1.63,1.63,0,0,1-1.63-1.63h0a1.63,1.63,0,0,1,1.63-1.63h11.85a1.63,1.63,0,0,1,1.63,1.63h0A1.63,1.63,0,0,1,658.93,86.05Z" style="fill:#e0e0e0"></path><path d="M666.25,256.93H640a1.79,1.79,0,0,1-1.79-1.79h0a1.79,1.79,0,0,1,1.79-1.8h26.25a1.79,1.79,0,0,1,1.79,1.8h0A1.79,1.79,0,0,1,666.25,256.93Z" style="fill:#e0e0e0"></path><path d="M255.39,175.32h87.29s-7.72-14-30.19-12c-21.46,2-22.55-6.91-33.46-8S259,162.59,255.39,175.32Z" style="fill:#ebebeb"></path><path d="M388.26,71.14H509s-10.68-19.43-41.76-16.61C437.56,57.24,436.05,45,421,43.47S393.29,53.53,388.26,71.14Z" style="fill:#ebebeb"></path></g><g id="freepik--Floor--inject-14"><path d="M696.66,465.81c0,.15-144,.27-321.64.27S53.34,466,53.34,465.81s144-.26,321.68-.26S696.66,465.67,696.66,465.81Z" style="fill:#263238"></path></g><g id="freepik--Plants--inject-14"><path d="M139,306c-20.07-5.25-37.61-18.44-47.37-35.65a68.62,68.62,0,0,1-5-56.63c5.18-14.4,15.15-27.08,19.42-41.74,4.85-16.64,2-34.29-1-51.31s-6-34.61-1.5-51.33,18.87-32.41,37.29-33.6c17.09-1.1,32.87,10.73,40,25.27s7.18,31.22,5.52,47.14-4.91,31.82-3.9,47.79c2.07,32.33,21.45,62.75,19.17,95.07-1.18,16.82-8.15,27.59-20.08,40.25C171.27,302.16,154.17,309.33,139,306" style="fill:#455a64"></path><path d="M145.07,466.15c-.18,0-.33-71.6-.33-159.92s.15-159.94.33-159.94.32,71.6.32,159.94S145.24,466.15,145.07,466.15Z" style="fill:#263238"></path><path d="M144.14,250.1a23.39,23.39,0,0,1-2.95-2.6c-1.76-1.66-4.15-4-6.67-6.7s-4.84-5.07-6.51-6.81a24.31,24.31,0,0,1-2.62-2.9,24.48,24.48,0,0,1,3,2.6c1.76,1.67,4.15,4,6.67,6.71s4.84,5.07,6.51,6.81A24.81,24.81,0,0,1,144.14,250.1Z" style="fill:#263238"></path><rect x="92.49" y="452.88" width="106.96" height="13.07" style="fill:#263238"></rect><path d="M146.07,183.1a21.78,21.78,0,0,0,6.53-2.72,17.75,17.75,0,0,0,5.24-5.27,17.55,17.55,0,0,0,2.85-8.36l0-.28.37.31a14.06,14.06,0,0,0-7.87,4.33,29.84,29.84,0,0,0-4.39,5.89c-1.05,1.81-1.79,3.32-2.29,4.38a12.46,12.46,0,0,1-.82,1.62,8.84,8.84,0,0,1,.58-1.71,42.68,42.68,0,0,1,2.13-4.49,28.08,28.08,0,0,1,4.35-6.06,14.4,14.4,0,0,1,8.21-4.56l.41-.06,0,.38,0,.29a18.16,18.16,0,0,1-8.48,13.94A16.63,16.63,0,0,1,148,182.8a11.84,11.84,0,0,1-1.43.26A1.46,1.46,0,0,1,146.07,183.1Z" style="fill:#263238"></path><path d="M146.07,183.1c-.14-.11,1.87-2.6,4.48-5.57s4.84-5.29,5-5.18-1.87,2.59-4.48,5.57S146.21,183.21,146.07,183.1Z" style="fill:#263238"></path><path d="M161.22,438.31c-10.93-9-12.38-24.19-10.86-37.64.26-2.24.19-4.64,1.42-6.53s3.83-3,5.77-1.93c1.61.92,2.19,2.92,3,4.6a13.23,13.23,0,0,0,4.89,5.46c1.37.85,3.11,1.45,4.58.78,2-.92,2.47-3.59,2.63-5.83q.45-6.25.91-12.52a20.65,20.65,0,0,1,1.2-6.59,7,7,0,0,1,4.73-4.35c2.18-.43,4.71,1,5,3.23a20.08,20.08,0,0,1-.16,2.79,2.38,2.38,0,0,0,1.21,2.33,2.74,2.74,0,0,0,2.54-.84,29.94,29.94,0,0,0,6-7.64,41.8,41.8,0,0,1,5.64-7.94c2.29-2.3,5.35-4,8.57-3.95s6.48,2.32,7,5.53-1.53,6.27-3.74,8.67a50.16,50.16,0,0,1-11.18,9.1,4.13,4.13,0,0,0-1.89,1.73c-.6,1.46.7,3.05,2.13,3.66,1.63.68,3.45.65,5.18,1s3.56,1.27,4.09,3c.74,2.36-1.36,4.6-3.37,6a42.94,42.94,0,0,1-13.24,6.31,14.65,14.65,0,0,0-4.89,1.92c-1.42,1.05-2.38,3-1.7,4.64s2.7,2.31,4.45,2.13a30.78,30.78,0,0,0,5.06-1.49c3.16-.92,7.12-.4,8.88,2.41a7.11,7.11,0,0,1,.26,6.33,16.38,16.38,0,0,1-3.83,5.26A43.08,43.08,0,0,1,182.1,439.4c-7.33,1.92-14,2.06-20.88-1.09" style="fill:#90C2D3"></path><g style="opacity:0.4"><path d="M161.22,438.31c-10.93-9-12.38-24.19-10.86-37.64.26-2.24.19-4.64,1.42-6.53s3.83-3,5.77-1.93c1.61.92,2.19,2.92,3,4.6a13.23,13.23,0,0,0,4.89,5.46c1.37.85,3.11,1.45,4.58.78,2-.92,2.47-3.59,2.63-5.83q.45-6.25.91-12.52a20.65,20.65,0,0,1,1.2-6.59,7,7,0,0,1,4.73-4.35c2.18-.43,4.71,1,5,3.23a20.08,20.08,0,0,1-.16,2.79,2.38,2.38,0,0,0,1.21,2.33,2.74,2.74,0,0,0,2.54-.84,29.94,29.94,0,0,0,6-7.64,41.8,41.8,0,0,1,5.64-7.94c2.29-2.3,5.35-4,8.57-3.95s6.48,2.32,7,5.53-1.53,6.27-3.74,8.67a50.16,50.16,0,0,1-11.18,9.1,4.13,4.13,0,0,0-1.89,1.73c-.6,1.46.7,3.05,2.13,3.66,1.63.68,3.45.65,5.18,1s3.56,1.27,4.09,3c.74,2.36-1.36,4.6-3.37,6a42.94,42.94,0,0,1-13.24,6.31,14.65,14.65,0,0,0-4.89,1.92c-1.42,1.05-2.38,3-1.7,4.64s2.7,2.31,4.45,2.13a30.78,30.78,0,0,0,5.06-1.49c3.16-.92,7.12-.4,8.88,2.41a7.11,7.11,0,0,1,.26,6.33,16.38,16.38,0,0,1-3.83,5.26A43.08,43.08,0,0,1,182.1,439.4c-7.33,1.92-14,2.06-20.88-1.09"></path></g><path d="M212.29,363.94l-.24.2-.71.54c-.63.47-1.55,1.17-2.72,2.1a84.12,84.12,0,0,0-9.27,8.55c-1.83,1.94-3.75,4.16-5.76,6.57s-4.14,5-6.28,7.83a99.94,99.94,0,0,0-6.27,9.13c-1,1.64-1.91,3.37-2.84,5.14l-2.81,5.36a206.37,206.37,0,0,0-9.67,20.91,100.6,100.6,0,0,0-5.18,18.08,74.2,74.2,0,0,0-1.2,12.62c0,1.5,0,2.67.07,3.46,0,.37,0,.67,0,.89v.31a1.4,1.4,0,0,1,0-.3c0-.23-.05-.52-.08-.9-.07-.79-.12-1.95-.14-3.46a69.57,69.57,0,0,1,1.08-12.67,97.81,97.81,0,0,1,5.1-18.16,201.81,201.81,0,0,1,9.66-21l2.82-5.37c.93-1.76,1.85-3.5,2.85-5.15a102.79,102.79,0,0,1,6.32-9.16c2.15-2.81,4.3-5.4,6.32-7.81s4-4.62,5.81-6.55a78.71,78.71,0,0,1,9.39-8.48c1.18-.91,2.12-1.59,2.76-2l.74-.51A1.64,1.64,0,0,1,212.29,363.94Z" style="fill:#263238"></path><path d="M180.81,398.64a4.1,4.1,0,0,1-.14-1c-.07-.63-.14-1.54-.21-2.67-.14-2.25-.23-5.37-.32-8.81s-.21-6.55-.39-8.79c-.08-1.13-.16-2-.22-2.66a4.27,4.27,0,0,1-.05-1,4.19,4.19,0,0,1,.21,1c.11.62.23,1.53.35,2.65.25,2.24.43,5.36.52,8.81s.14,6.46.19,8.81c0,1.06.06,1.95.08,2.67A4.67,4.67,0,0,1,180.81,398.64Z" style="fill:#263238"></path><path d="M210,395.53a7.52,7.52,0,0,1-1.16,0c-.74,0-1.82,0-3.15.06-2.65.08-6.32.32-10.36.75s-7.67,1-10.29,1.48c-1.31.23-2.36.45-3.09.59a6,6,0,0,1-1.15.19,6.06,6.06,0,0,1,1.11-.35c.72-.19,1.77-.45,3.08-.72,2.61-.55,6.25-1.16,10.3-1.6a100.75,100.75,0,0,1,10.4-.63c1.33,0,2.41,0,3.16.07A6.05,6.05,0,0,1,210,395.53Z" style="fill:#263238"></path><path d="M165.76,429.63a1.57,1.57,0,0,1-.17-.36l-.41-1.08c-.35-.94-.83-2.31-1.39-4-1.13-3.4-2.54-8.16-4-13.42s-2.85-10-3.91-13.46c-.52-1.66-.94-3-1.26-4.05-.14-.44-.25-.81-.34-1.11a1.87,1.87,0,0,1-.09-.39,1.87,1.87,0,0,1,.17.37c.11.29.25.64.41,1.08.35.93.83,2.31,1.39,4,1.13,3.41,2.54,8.16,4,13.43s2.85,10,3.91,13.45c.52,1.67.94,3,1.26,4.05l.34,1.11A1.87,1.87,0,0,1,165.76,429.63Z" style="fill:#263238"></path><path d="M205,420.32l-.39.12-1.14.29-4.2,1c-3.55.85-8.43,2.08-13.82,3.45s-10.3,2.55-13.87,3.33c-1.78.38-3.22.68-4.23.87l-1.15.21c-.27,0-.41.06-.41,0l.39-.12,1.14-.29,4.2-1c3.55-.85,8.43-2.08,13.83-3.45s10.29-2.55,13.86-3.33c1.78-.38,3.22-.68,4.23-.87l1.15-.21C204.83,420.32,205,420.3,205,420.32Z" style="fill:#263238"></path><path d="M141,427.27c21.56-15.63,26-44,24.74-69.44-.22-4.25.17-8.73-1.91-12.42s-6.84-6.16-10.62-4.31c-3.12,1.54-4.44,5.23-6.15,8.3a24.92,24.92,0,0,1-9.8,9.68c-2.68,1.45-6,2.37-8.7.94-3.7-2-4.22-7-4.27-11.24q-.12-11.8-.25-23.62c0-4.22-.11-8.54-1.49-12.52s-4.35-7.66-8.39-8.72-9,1.34-9.74,5.49c-.32,1.73.06,3.51,0,5.26s-.87,3.71-2.53,4.23-3.39-.64-4.67-1.86c-4.43-4.19-7.49-9.63-10.34-15.05s-5.64-11-9.68-15.55-9.57-8.18-15.62-8.42-12.44,3.61-13.87,9.57,2.15,12,6,16.72a94.35,94.35,0,0,0,19.95,18.38c1.35.92,2.81,1.92,3.35,3.48,1,2.8-1.66,5.64-4.42,6.61-3.13,1.1-6.56.84-9.84,1.28s-6.83,2-8,5.09c-1.66,4.35,2,8.81,5.63,11.71a80.7,80.7,0,0,0,24.14,13.4c3.13,1.08,6.41,2,9,4.16s4.12,5.91,2.65,8.91-5.33,4-8.6,3.48-6.2-2.27-9.33-3.38c-5.84-2.1-13.33-1.57-17,3.51-2.39,3.34-2.52,7.94-1.22,11.85s3.87,7.25,6.58,10.33c9.49,10.75,21.55,19.34,35.1,23.78s26,5.49,39.34.37" style="fill:#90C2D3"></path><path d="M142.66,465c.4-5.64.1-8.81-1-18.88a184.92,184.92,0,0,0-7.49-34.69,377.83,377.83,0,0,0-15.72-40.5l-4.67-10.4c-1.53-3.41-3.06-6.79-4.76-10A188.46,188.46,0,0,0,98.19,332.6c-3.71-5.53-7.44-10.65-11-15.41s-6.91-9.12-10.15-13a149.62,149.62,0,0,0-16.65-17c-2.12-1.85-3.81-3.23-5-4.15l-1.33-1a3.1,3.1,0,0,0-.46-.33,3.1,3.1,0,0,0,.41.39l1.28,1.1c1.12,1,2.78,2.37,4.86,4.25a159.3,159.3,0,0,1,16.43,17.14c3.21,3.86,6.55,8.24,10,13s7.2,9.9,10.89,15.43a189.77,189.77,0,0,1,10.73,17.87c1.68,3.2,3.19,6.56,4.73,10s3.09,6.88,4.66,10.4a386,386,0,0,1,15.75,40.39,188.87,188.87,0,0,1,7.63,34.54c1.18,10,1.57,13.16,1.25,18.79" style="fill:#263238"></path><path d="M108.78,350.5a9.44,9.44,0,0,0,.38-1.81c.2-1.17.44-2.88.7-5,.53-4.21,1-10.06,1.61-16.51s1.16-12.27,1.75-16.47c.29-2.1.54-3.79.73-5a7.85,7.85,0,0,0,.2-1.84,9.24,9.24,0,0,0-.5,1.78c-.28,1.15-.61,2.84-1,4.94-.73,4.19-1.43,10-2,16.48s-1,12.12-1.39,16.52c-.17,2-.33,3.66-.45,5A8.93,8.93,0,0,0,108.78,350.5Z" style="fill:#263238"></path><path d="M54.3,341.27a11,11,0,0,0,2.17.22c1.4.1,3.42.24,5.91.48,5,.46,11.84,1.32,19.37,2.61s14.29,2.77,19.15,4c2.44.58,4.4,1.11,5.75,1.46a12.39,12.39,0,0,0,2.13.49,10.41,10.41,0,0,0-2-.78c-1.34-.45-3.28-1.06-5.7-1.71-4.84-1.35-11.61-2.9-19.16-4.21a191,191,0,0,0-19.46-2.38c-2.51-.17-4.54-.23-5.94-.23A12.08,12.08,0,0,0,54.3,341.27Z" style="fill:#263238"></path><path d="M133.46,410.44a2.68,2.68,0,0,0,.37-.67c.24-.53.53-1.19.89-2,.77-1.72,1.82-4.25,3.07-7.38,2.52-6.26,5.72-15,9.12-24.75s6.52-18.5,8.9-24.81c1.16-3.07,2.12-5.59,2.84-7.47l.76-2a2.48,2.48,0,0,0,.21-.73,3.53,3.53,0,0,0-.36.67c-.24.54-.53,1.19-.89,2-.77,1.73-1.82,4.25-3.08,7.38-2.51,6.27-5.71,15-9.11,24.76s-6.52,18.5-8.9,24.81c-1.17,3.06-2.12,5.59-2.84,7.46-.3.82-.55,1.49-.76,2A3,3,0,0,0,133.46,410.44Z" style="fill:#263238"></path><path d="M60.9,388.41a2.91,2.91,0,0,0,.72.28l2.11.67,7.77,2.37c6.56,2,15.59,4.88,25.57,8.07s19,6,25.64,7.85c3.3.94,6,1.67,7.84,2.13l2.15.53a2.73,2.73,0,0,0,.76.13,2.7,2.7,0,0,0-.72-.28l-2.1-.67-7.77-2.37c-6.57-2-15.6-4.88-25.57-8.07s-19-6-25.64-7.85c-3.31-.94-6-1.67-7.85-2.13l-2.15-.53A3.24,3.24,0,0,0,60.9,388.41Z" style="fill:#263238"></path><path d="M681.86,439.62a15.88,15.88,0,0,1,9.84-1.19,8.15,8.15,0,0,1,4.86,2.17c1.22,1.34,1.45,3.7.05,4.85a4.64,4.64,0,0,1-3.06.78c-2.61,0-5.49-.49-7.57,1.07-1.18.9-2,2.38-3.39,2.82a3.36,3.36,0,0,1-3.69-1.64,5.78,5.78,0,0,1-.42-4.23A6.49,6.49,0,0,1,681.86,439.62Z" style="fill:#90C2D3"></path><path d="M675,426.39c1.83,2.61,5.39,1.74,7,.15s2.35-3.91,3-6.11c1.45-5,2.91-10.33,1.83-15.46a8.56,8.56,0,0,0-2-4.2,4.48,4.48,0,0,0-4.25-1.41c-1.79.47-2.91,2.23-3.71,3.9a36.66,36.66,0,0,0-3.64,15.81c0,2.54.29,5.21,1.72,7.32" style="fill:#90C2D3"></path><path d="M670,430.14a9.56,9.56,0,0,0,1.48-8.76,16.94,16.94,0,0,0-5.19-7.52,28,28,0,0,0-9.28-5.47,9.84,9.84,0,0,0-4.17-.71,4.38,4.38,0,0,0-3.51,2.12c-1,1.86,0,4.12,1,6a70.39,70.39,0,0,0,6.09,9.29c1.83,2.36,3.92,4.68,6.71,5.74s5.68.94,7.15-1" style="fill:#90C2D3"></path><path d="M674.88,465.82a6.07,6.07,0,0,0,.16-1.19c.09-.87.19-1.95.32-3.24a46.19,46.19,0,0,1,.73-4.76,37.06,37.06,0,0,1,1.73-5.61,20.44,20.44,0,0,1,2.86-5.08,10.86,10.86,0,0,1,3.63-3,10.06,10.06,0,0,1,3.05-.95,6.43,6.43,0,0,0,1.18-.17,5.9,5.9,0,0,0-1.2,0,9.25,9.25,0,0,0-3.19.83,10.69,10.69,0,0,0-3.82,3,20.41,20.41,0,0,0-3,5.18,34.35,34.35,0,0,0-1.71,5.7,40.9,40.9,0,0,0-.64,4.81c-.1,1.38-.14,2.5-.16,3.27A6.33,6.33,0,0,0,674.88,465.82Z" style="fill:#263238"></path><path d="M675.1,463.32a2,2,0,0,0,0-.55v-1.58c0-1.36,0-3.34.07-5.79.12-4.89.54-10.15,1.36-17.56.77-7,1.8-15.09,2.89-20.37.23-1.2.47-2.28.69-3.23s.39-1.76.57-2.42.27-1.13.36-1.53a2.23,2.23,0,0,0,.1-.55,2.47,2.47,0,0,0-.19.52c-.12.4-.27.9-.46,1.51s-.41,1.47-.65,2.41-.5,2-.76,3.22a178.15,178.15,0,0,0-3,18.9c-.82,7.43-1.18,14.2-1.22,19.1,0,2.45,0,4.43.09,5.8,0,.64.07,1.16.1,1.57A2.68,2.68,0,0,0,675.1,463.32Z" style="fill:#263238"></path><path d="M675.14,450.27a12.21,12.21,0,0,0,0-1.65,44.75,44.75,0,0,0-.5-4.46,60.46,60.46,0,0,0-1.45-6.5,53.68,53.68,0,0,0-2.72-7.69,40.85,40.85,0,0,0-8-12.42,19.45,19.45,0,0,0-1.88-1.75c-.28-.24-.54-.48-.8-.68l-.73-.5a11.48,11.48,0,0,0-1.38-.89,50.07,50.07,0,0,1,4.54,4.06A43.06,43.06,0,0,1,670,430.17a58.75,58.75,0,0,1,2.73,7.62,65,65,0,0,1,1.55,6.43c.34,1.86.53,3.37.65,4.42A9.32,9.32,0,0,0,675.14,450.27Z" style="fill:#263238"></path></g><g id="freepik--Character--inject-14"><path d="M597.47,460.37l.64-5.38,19.36-1,.34,10.84-1.25.12c-5.52.45-28.14,1.92-31.87.89C580.52,464.66,597.47,460.37,597.47,460.37Z" style="fill:#90C2D3"></path><g style="opacity:0.4"><path d="M610.53,464.83a7,7,0,0,1,2.44-4.35,6.79,6.79,0,0,1,4.66-1.58l.15,5.61Z"></path></g><g style="opacity:0.4"><path d="M589.2,462.76s-5.93,1.88-5.16,2.85,23.68.34,33.77-.82l0-.44L591,465.3S590.37,462.78,589.2,462.76Z"></path></g><path d="M618.08,464.33l-.35,0-1,.09-3.64.26c-3.08.19-7.33.4-12,.53s-9,.16-12,.14l-3.66-.06-1,0a1.44,1.44,0,0,1-.34,0l.34,0h1l3.65,0c3.09,0,7.35-.07,12-.2s9-.32,12-.47l3.65-.18,1,0Z" style="fill:#263238"></path><path d="M591.06,465.61a8.84,8.84,0,0,0-.73-1.72,8.62,8.62,0,0,0-1.28-1.37,2.74,2.74,0,0,1,1.48,1.23A2.69,2.69,0,0,1,591.06,465.61Z" style="fill:#263238"></path><path d="M596.9,462.45c-.06,0-.35-.3-.66-.76a2.23,2.23,0,0,1-.45-.89c.06,0,.35.3.66.76A2.23,2.23,0,0,1,596.9,462.45Z" style="fill:#263238"></path><path d="M598.5,461.54s-.37-.15-.72-.45-.61-.59-.56-.64.36.15.72.45S598.54,461.49,598.5,461.54Z" style="fill:#263238"></path><path d="M599.47,459.62c0,.07-.46.14-1,.16a2.34,2.34,0,0,1-1-.08,2.28,2.28,0,0,1,1-.16A2.34,2.34,0,0,1,599.47,459.62Z" style="fill:#263238"></path><path d="M599.79,458.28a2.12,2.12,0,0,1-1.16.37,2.07,2.07,0,0,1-1.21-.13,6.26,6.26,0,0,1,1.19-.12A5.94,5.94,0,0,1,599.79,458.28Z" style="fill:#263238"></path><path d="M596.17,460.71a3.71,3.71,0,0,1-1.29,0,7.57,7.57,0,0,1-1.38-.27,3.59,3.59,0,0,1-.8-.3.72.72,0,0,1-.33-.39.51.51,0,0,1,.19-.52,2.37,2.37,0,0,1,2.94.61,2.3,2.3,0,0,1,.44.85c.06.22.06.35,0,.35a3.57,3.57,0,0,0-.61-1.09,2.4,2.4,0,0,0-1.12-.68,2.06,2.06,0,0,0-1.54.14c-.2.16-.11.4.12.53a3.83,3.83,0,0,0,.73.29,10,10,0,0,0,1.34.31C595.68,460.69,596.17,460.67,596.17,460.71Z" style="fill:#263238"></path><path d="M595.84,460.79a1.29,1.29,0,0,1-.18-.9,2.21,2.21,0,0,1,.33-.95,1.29,1.29,0,0,1,1.06-.68.51.51,0,0,1,.41.58,1.42,1.42,0,0,1-.2.58,4.26,4.26,0,0,1-.59.8c-.4.41-.71.57-.73.54s.26-.24.6-.65a4.7,4.7,0,0,0,.52-.79c.17-.28.28-.77,0-.82s-.64.31-.83.57a2.17,2.17,0,0,0-.35.85A4.45,4.45,0,0,0,595.84,460.79Z" style="fill:#263238"></path><path d="M617.52,458.85s-.58,0-1.48.09a6.27,6.27,0,0,0-5.14,4.33c-.29.87-.3,1.45-.35,1.44a1.55,1.55,0,0,1,0-.4,6.09,6.09,0,0,1,.19-1.09,6.28,6.28,0,0,1,1.95-3.05,6.19,6.19,0,0,1,3.34-1.4,5,5,0,0,1,1.1,0A1.06,1.06,0,0,1,617.52,458.85Z" style="fill:#263238"></path><path d="M615.36,453.83a12.47,12.47,0,0,1,.21,2.48,12.66,12.66,0,0,1,0,2.49,12.7,12.7,0,0,1-.21-2.48A12.56,12.56,0,0,1,615.36,453.83Z" style="fill:#263238"></path><path d="M608,462.94a11.65,11.65,0,0,1-2.92.37,11.8,11.8,0,0,1-2.94-.15c0-.07,1.31,0,2.93-.09S607.94,462.87,608,462.94Z" style="fill:#263238"></path><path d="M611.88,462.83c0,.05-.1.28-.22.58s-.2.58-.27.57-.11-.31,0-.66S611.84,462.78,611.88,462.83Z" style="fill:#263238"></path><path d="M613.31,460.94c.05.05-.07.26-.27.48s-.41.35-.46.31.08-.26.28-.48S613.26,460.9,613.31,460.94Z" style="fill:#263238"></path><path d="M615.41,460c0,.07-.28.08-.57.19s-.5.27-.55.23.1-.33.47-.46S615.43,460,615.41,460Z" style="fill:#263238"></path><path d="M616.91,459.61c0,.06-.09.16-.25.23s-.32.08-.35,0,.09-.17.26-.24S616.88,459.54,616.91,459.61Z" style="fill:#263238"></path><path d="M622.44,273.32v12.91l-5.2,8.55c0,3.13-4.91,78.14-4.91,78.14l6.26,85.1-23.87,2.43-16.05-98.91,11.11-89.74Z" style="fill:#263238"></path><path d="M595.34,458l-1.61-5.88,19.75-9.25L618.4,454l-1.25.64c-5.57,2.8-28.52,13.87-32.84,14.37C579.49,469.61,595.34,458,595.34,458Z" style="fill:#90C2D3"></path><g style="opacity:0.4"><path d="M610.83,457.13a7.84,7.84,0,0,1,.71-5.56,7.63,7.63,0,0,1,4.19-3.61l2.52,5.78Z"></path></g><g style="opacity:0.4"><path d="M587.73,464s-5.39,4.46-4.18,5.14,24.83-9.62,34.85-15.08l-.23-.45-27.45,12.26S589,463.5,587.73,464Z"></path></g><path d="M618.48,453.42a1.5,1.5,0,0,1-.33.2l-1,.51-3.69,1.8c-3.12,1.5-7.47,3.51-12.32,5.63s-9.27,3.95-12.5,5.22l-3.83,1.49-1,.38a1.59,1.59,0,0,1-.38.12,1.93,1.93,0,0,1,.36-.17l1-.43,3.79-1.57c3.2-1.32,7.62-3.17,12.46-5.29s9.2-4.1,12.35-5.56L617.1,454l1-.46Z" style="fill:#263238"></path><path d="M590.87,466.16a9.82,9.82,0,0,0-1.49-1.49,8.91,8.91,0,0,0-1.91-.88,3,3,0,0,1,2.07.65A3.07,3.07,0,0,1,590.87,466.16Z" style="fill:#263238"></path><path d="M595.62,460.4c0,.06-.49-.17-1-.51s-.89-.68-.85-.74.49.17,1,.51S595.66,460.33,595.62,460.4Z" style="fill:#263238"></path><path d="M596.91,458.78c0,.07-.45,0-.95-.17s-.87-.36-.85-.43.44,0,.94.17S596.93,458.71,596.91,458.78Z" style="fill:#263238"></path><path d="M597.11,456.36c0,.07-.42.35-1,.61a2.59,2.59,0,0,1-1.13.36c0-.07.43-.34,1-.61A3,3,0,0,1,597.11,456.36Z" style="fill:#263238"></path><path d="M596.87,454.83c.06.05-.37.52-1,.88a2.24,2.24,0,0,1-1.31.37,8.21,8.21,0,0,1,1.19-.62A7.8,7.8,0,0,1,596.87,454.83Z" style="fill:#263238"></path><path d="M594.13,458.9a4.22,4.22,0,0,1-1.33.57,9.34,9.34,0,0,1-1.56.31,4.24,4.24,0,0,1-1,0,.83.83,0,0,1-.51-.27.58.58,0,0,1,0-.62,2.67,2.67,0,0,1,4.14.09.88.88,0,0,1,.2.35,3.86,3.86,0,0,0-1.1-.87,2.61,2.61,0,0,0-1.46-.25,2.27,2.27,0,0,0-1.54.8c-.14.25,0,.46.34.5a3.79,3.79,0,0,0,.89,0,8.63,8.63,0,0,0,1.53-.24C593.6,459.08,594.11,458.86,594.13,458.9Z" style="fill:#263238"></path><path d="M593.81,459.11s-.35-.23-.55-.85a2.32,2.32,0,0,1-.06-1.13A1.43,1.43,0,0,1,594,456a.56.56,0,0,1,.67.43,1.69,1.69,0,0,1,0,.7,4.61,4.61,0,0,1-.28,1.07,2,2,0,0,1-.53.87s.17-.35.35-.93a5.29,5.29,0,0,0,.21-1c.06-.36,0-.92-.4-.84s-.54.6-.63.95a2.54,2.54,0,0,0,0,1A6,6,0,0,0,593.81,459.11Z" style="fill:#263238"></path><path d="M615.59,448c0,.05-.62.2-1.5.72a7.32,7.32,0,0,0-2.74,2.83,7.23,7.23,0,0,0-.79,3.85c.07,1,.3,1.64.25,1.65s-.09-.14-.19-.42a6.12,6.12,0,0,1-.26-1.21A6.86,6.86,0,0,1,614,448.5a6.63,6.63,0,0,1,1.15-.47A1.4,1.4,0,0,1,615.59,448Z" style="fill:#263238"></path><path d="M611.22,443.63a14,14,0,0,1,1.27,2.49,14.56,14.56,0,0,1,1,2.61,14,14,0,0,1-1.27-2.49A14.56,14.56,0,0,1,611.22,443.63Z" style="fill:#263238"></path><path d="M607.34,456.25a18.31,18.31,0,0,1-6,2.7c0-.08,1.37-.58,3-1.33S607.3,456.18,607.34,456.25Z" style="fill:#263238"></path><path d="M611.4,454.48c.07,0,0,.33,0,.7s0,.68,0,.71-.25-.28-.25-.71S611.33,454.45,611.4,454.48Z" style="fill:#263238"></path><path d="M612.09,451.91c.07,0,0,.3-.09.61s-.27.54-.34.51,0-.3.09-.61S612,451.88,612.09,451.91Z" style="fill:#263238"></path><path d="M613.9,450.09c0,.07-.26.19-.52.43s-.4.5-.48.47,0-.38.3-.67S613.89,450,613.9,450.09Z" style="fill:#263238"></path><path d="M615.28,449c.05.05,0,.21-.16.35s-.31.21-.36.16,0-.21.16-.35S615.22,448.94,615.28,449Z" style="fill:#263238"></path><path d="M571.25,273.32c-.88.49-16.11,54.75-23.38,80.8a37.07,37.07,0,0,0,2.47,26.36L588.67,458l28.92-13.54L582.88,368.2l30.66-94.88Z" style="fill:#263238"></path><path d="M588.67,458l.5-.26,1.49-.73,5.74-2.75,21.11-10-.09.26C610.8,429.75,602,410,592.35,388.45l-9.66-21.72,0-.09,0-.09L598,319.11c1.92-5.87,3.46-10.56,4.52-13.81.53-1.59,1-2.82,1.23-3.69l.33-.95a1.72,1.72,0,0,1,.13-.31,3,3,0,0,1-.09.33l-.28,1c-.27.87-.66,2.11-1.15,3.72l-4.38,13.85L583.16,366.7v-.18c3.05,6.84,6.31,14.17,9.68,21.72,9.59,21.61,18.36,41.34,24.94,56.16l.08.18-.17.08-21.19,9.82-5.79,2.65-1.51.68C588.85,458,588.67,458,588.67,458Z" style="fill:#455a64"></path><path d="M619.91,286.23a104.87,104.87,0,0,1-7.7,7.2c-4.35,3.86-8,6.91-8.05,6.8s3.36-3.33,7.7-7.19S619.81,286.13,619.91,286.23Z" style="fill:#455a64"></path><path d="M597.56,272.85a3.43,3.43,0,0,1-.27,1,9.66,9.66,0,0,1-1.44,2.58,11.34,11.34,0,0,1-3.3,2.89,10.37,10.37,0,0,1-10.39.19,11.32,11.32,0,0,1-3.4-2.77,9.83,9.83,0,0,1-1.53-2.52,3.86,3.86,0,0,1-.32-1,16.14,16.14,0,0,0,2.13,3.32,11.35,11.35,0,0,0,3.35,2.58,10.11,10.11,0,0,0,9.92-.18,11.37,11.37,0,0,0,3.25-2.7A16.11,16.11,0,0,0,597.56,272.85Z" style="fill:#455a64"></path><path d="M573.65,360.75a14.87,14.87,0,0,1,2.53,1.41c1.53.92,3.62,2.24,5.91,3.71l1.17.75.36.24-.37.2c-2.09,1.19-4,2.22-5.29,2.94a12.49,12.49,0,0,1-2.2,1.06,11.71,11.71,0,0,1,2-1.36c1.3-.8,3.12-1.88,5.2-3.08v.44l-1.17-.75c-2.29-1.48-4.35-2.84-5.83-3.84A16.66,16.66,0,0,1,573.65,360.75Z" style="fill:#455a64"></path><polygon points="543.17 208.46 534.19 225.42 486.22 251.65 495.35 269.39 559.26 238.93 568.85 216.43 543.17 208.46" style="fill:#ffbe9d"></polygon><path d="M477.6,253.69c-1.49-.64-4.65-2.13-6.15-2.72a5.5,5.5,0,0,0-4.69,0c-2,1.12-2.45,4-1.36,6a7.46,7.46,0,0,0,5.57,3.47,5.74,5.74,0,0,0,7.94,7.26c1.13-.58,2-1.52,3.12-2.2a15.56,15.56,0,0,1,4.15-1.64l20.67-6a5.43,5.43,0,1,0,2.43-9c1.47-2.59,1.28-6.2-.91-8.22s-6.31-1.58-7.61,1.1a28.17,28.17,0,0,0-.91,3.21,7.1,7.1,0,0,1-4.21,4.47Z" style="fill:#90C2D3"></path><g style="opacity:0.2"><path d="M477.6,253.69c-1.49-.64-4.65-2.13-6.15-2.72a5.5,5.5,0,0,0-4.69,0c-2,1.12-2.45,4-1.36,6a7.46,7.46,0,0,0,5.57,3.47,5.74,5.74,0,0,0,7.94,7.26c1.13-.58,2-1.52,3.12-2.2a15.56,15.56,0,0,1,4.15-1.64l20.67-6a5.43,5.43,0,1,0,2.43-9c1.47-2.59,1.28-6.2-.91-8.22s-6.31-1.58-7.61,1.1a28.17,28.17,0,0,0-.91,3.21,7.1,7.1,0,0,1-4.21,4.47Z"></path></g><path d="M477.14,254.8c-1.49-.63-4.65-2.12-6.15-2.72a5.57,5.57,0,0,0-4.69,0c-2,1.12-2.45,4-1.37,6a7.5,7.5,0,0,0,5.58,3.47,5.74,5.74,0,0,0,7.94,7.27c1.13-.58,2-1.53,3.12-2.21a16,16,0,0,1,4.14-1.64l20.68-6a5.42,5.42,0,1,0,2.43-9c1.47-2.58,1.28-6.2-.91-8.21s-6.32-1.59-7.61,1.09a26.26,26.26,0,0,0-.91,3.21,7.13,7.13,0,0,1-4.22,4.48Z" style="fill:#90C2D3"></path><path d="M545,138.05c-2.25-3.94-4.53-7.94-5.68-12.32s-1.1-9.28,1.17-13.21a17.89,17.89,0,0,1,8.1-6.92c4.56-2.15,10.18-2.95,14.52-.39s6.29,7.66,7.36,12.53c.71,3.2,1.14,6.63,0,9.7-1.72,4.55-6.5,7.2-11.2,8.46s-9.65,1.52-14.2,3.23" style="fill:#263238"></path><path d="M576.2,118l9.86,45.79-22.84,5.07-3.9-12.7s-9.74,1.41-12.71-7.85c-1.44-4.5-3.67-14-5.57-22.63a18,18,0,0,1,13.3-21.37h0A18,18,0,0,1,576.2,118Z" style="fill:#ffbe9d"></path><path d="M559.26,156a22.64,22.64,0,0,0,11.06-7.17s-.81,7.57-10.34,9.58Z" style="fill:#eb996e"></path><path d="M545.71,131.65a1.39,1.39,0,0,0,1.69.95,1.33,1.33,0,0,0,1-1.62,1.39,1.39,0,0,0-1.69-.95A1.33,1.33,0,0,0,545.71,131.65Z" style="fill:#263238"></path><path d="M544.47,129.76c.21.12,1-.93,2.42-1.37s2.7,0,2.8-.26-.21-.36-.77-.56a3.91,3.91,0,0,0-2.31,0,3.66,3.66,0,0,0-1.86,1.31C544.41,129.35,544.36,129.71,544.47,129.76Z" style="fill:#263238"></path><path d="M559.3,127.73a1.4,1.4,0,0,0,1.7,1,1.33,1.33,0,0,0,1-1.62,1.4,1.4,0,0,0-1.69-1A1.33,1.33,0,0,0,559.3,127.73Z" style="fill:#263238"></path><path d="M558.59,125.71c.21.12,1-.93,2.42-1.36s2.7,0,2.8-.27-.21-.36-.77-.55a3.82,3.82,0,0,0-2.31,0,3.66,3.66,0,0,0-1.86,1.31C558.54,125.3,558.48,125.66,558.59,125.71Z" style="fill:#263238"></path><path d="M556.66,137.9a9.27,9.27,0,0,0-2.45.29c-.38.07-.74.11-.88-.12a1.9,1.9,0,0,1-.09-1.16c.07-1,.15-2,.22-3.11.29-4.41.37-8,.19-8s-.55,3.56-.83,8c-.06,1.09-.12,2.12-.17,3.11a2.18,2.18,0,0,0,.25,1.49,1,1,0,0,0,.76.35,2.38,2.38,0,0,0,.65-.11A9.76,9.76,0,0,0,556.66,137.9Z" style="fill:#263238"></path><path d="M561.16,137.59c-.23.06.24,1.61-.75,3.12s-2.69,1.84-2.63,2.06.46.19,1.16,0a4.1,4.1,0,0,0,2.23-1.64,3.53,3.53,0,0,0,.53-2.58C561.56,137.88,561.27,137.55,561.16,137.59Z" style="fill:#263238"></path><path d="M556.5,120.23c.26.34,1.63-.28,3.36-.59s3.24-.28,3.35-.69c0-.2-.3-.49-1-.7a5.64,5.64,0,0,0-2.67-.1,5.71,5.71,0,0,0-2.44,1.07C556.6,119.66,556.38,120.06,556.5,120.23Z" style="fill:#263238"></path><path d="M543.72,125.46c.35.25,1.23-.39,2.41-.77s2.25-.45,2.38-.86c0-.2-.21-.47-.74-.65a3.7,3.7,0,0,0-3.86,1.32C543.6,125,543.56,125.34,543.72,125.46Z" style="fill:#263238"></path><path d="M575.21,126c.14-.12,5.81-3.85,7.55,2.56s-5,6.85-5.11,6.67S575.21,126,575.21,126Z" style="fill:#ffbe9d"></path><path d="M579,132.22s.13.05.34.08a1.16,1.16,0,0,0,.84-.21,2.88,2.88,0,0,0,.61-2.83,4,4,0,0,0-.75-1.52,1.34,1.34,0,0,0-1.08-.62.58.58,0,0,0-.57.48c0,.2,0,.32,0,.34s-.16-.07-.18-.35a.72.72,0,0,1,.14-.47.87.87,0,0,1,.57-.33,1.61,1.61,0,0,1,1.44.68,3.91,3.91,0,0,1,.88,1.68,3,3,0,0,1-.88,3.21,1.21,1.21,0,0,1-1.07.11C579,132.37,578.93,132.24,579,132.22Z" style="fill:#eb996e"></path><path d="M578.68,124.65a3.5,3.5,0,0,0-2.58,2.51c-.13,1,.09,2.09,0,3.12s-.81,2.14-1.85,2.21a2,2,0,0,1-1.77-1,5.6,5.6,0,0,1-.65-2c-.54-3.08-.82-6.21-1.62-9.24a16,16,0,0,0-4.53-8.06c-2.35-2.06-5.81-3-8.71-1.89-1.93.76-3.42,2.35-5.3,3.23a8.14,8.14,0,0,1-7.11-.17,15.16,15.16,0,0,0-1.47-.5,3.83,3.83,0,0,1,.06-2.17c2.79-4.8,9.49-8,15-8.24a19.36,19.36,0,0,1,15.16,6c3.7,4.14,5.1,11,5.38,16.29" style="fill:#263238"></path><path d="M568.17,104.7c.15,0,.09-.16.1-.31.05-1.24-1.19-3.64-5.56-4-3.27-.31-7.39.79-10.41,2.09s-6.1,2.74-9.39,2.8c-1.21,0-2.42-.15-3.62,0a4,4,0,0,0-3.06,1.69A2.17,2.17,0,0,0,537,110a3.74,3.74,0,0,0-4.81,1.87,4.38,4.38,0,0,0,1.48,5.12,5.37,5.37,0,0,0,5.46.36l5.25-6.58s2,.75,5.49-.61C553.15,108.87,565.72,105.09,568.17,104.7Z" style="fill:#263238"></path><path d="M532.12,114.09a4.67,4.67,0,0,0,.87.91,4.11,4.11,0,0,0,3.25.49,9.77,9.77,0,0,0,4.13-2.87,28.63,28.63,0,0,1,5-4,22,22,0,0,1,5.86-2.62,18.77,18.77,0,0,1,5.2-.69,15.52,15.52,0,0,1,3.51.44,4.6,4.6,0,0,1,1.23.41,26.51,26.51,0,0,0-4.74-.48,19.78,19.78,0,0,0-5.07.78,22.39,22.39,0,0,0-5.71,2.6A29.43,29.43,0,0,0,540.7,113a9.94,9.94,0,0,1-4.38,2.88,4.2,4.2,0,0,1-3.46-.69,2.69,2.69,0,0,1-.63-.75C532.14,114.21,532.1,114.1,532.12,114.09Z" style="fill:#455a64"></path><path d="M563.63,105.7s-.24-.35-.77-.87a6.26,6.26,0,0,0-2.65-1.55c-2.54-.82-6.32-.14-10.06,1.4s-7.1,3.25-9.79,3.83a4.55,4.55,0,0,1-3.19-.37,2.87,2.87,0,0,1-.68-.56c-.14-.16-.18-.25-.17-.26a7.15,7.15,0,0,0,.95.64,4.51,4.51,0,0,0,3,.19c2.58-.65,5.87-2.39,9.68-4s7.71-2.21,10.36-1.26a6.07,6.07,0,0,1,2.69,1.76A2.6,2.6,0,0,1,563.63,105.7Z" style="fill:#455a64"></path><path d="M560.22,170a14.19,14.19,0,0,1,13.11-6,11.63,11.63,0,0,1,6.5,2.89c2.73,2.51,6.58,5.54,6.76,9.25s-1.66,9.47-2.63,13c-3,10.93-7.51,22.5-11.82,33l-32.31-15.28,16.59-31.61Z" style="fill:#90C2D3"></path><g style="opacity:0.2"><path d="M560.22,170a14.19,14.19,0,0,1,13.11-6,11.63,11.63,0,0,1,6.5,2.89c2.73,2.51,6.58,5.54,6.76,9.25s-1.66,9.47-2.63,13c-3,10.93-7.51,22.5-11.82,33l-32.31-15.28,13.65-26a90.37,90.37,0,0,1,6.63-10.74Z"></path></g><path d="M561.67,213.36A18.63,18.63,0,0,1,559,211c-.79-.77-1.71-1.7-2.69-2.77a21.59,21.59,0,0,1-2.93-3.74,16.51,16.51,0,0,0-2.88-3.62,7.65,7.65,0,0,0-3.25-1.78,6.67,6.67,0,0,0-3.43.14,2.25,2.25,0,0,1,.87-.41,5.31,5.31,0,0,1,2.64-.08,7.62,7.62,0,0,1,3.49,1.77,16,16,0,0,1,3,3.7,23,23,0,0,0,2.84,3.7c1,1.08,1.85,2,2.6,2.83l1.77,1.9A3.43,3.43,0,0,1,561.67,213.36Z" style="fill:#e0e0e0"></path><path d="M564,198.4a8.92,8.92,0,0,1-2.4-1,41.28,41.28,0,0,1-5.3-3.3,34.54,34.54,0,0,1-4.72-4.1A7.71,7.71,0,0,1,550,188c.07,0,.67.72,1.82,1.81a46.93,46.93,0,0,0,4.76,3.94c2,1.42,3.8,2.6,5.17,3.4A22.47,22.47,0,0,1,564,198.4Z" style="fill:#e0e0e0"></path><path d="M565.74,188.73a29,29,0,0,1-6.46-3.49,36.62,36.62,0,0,1-4.16-3.12,6,6,0,0,1-1.46-1.59,17,17,0,0,1,1.69,1.31c1,.81,2.54,1.86,4.22,3s3.23,2.06,4.36,2.75A11.28,11.28,0,0,1,565.74,188.73Z" style="fill:#e0e0e0"></path><path d="M560.22,170a14.19,14.19,0,0,1,13.11-6,11.63,11.63,0,0,1,6.5,2.89c2.73,2.51,6.58,5.54,6.76,9.25s-1.66,9.47-2.63,13c-3,10.93-7.51,22.5-11.82,33l-32.31-15.28,16.59-31.61Z" style="fill:#90C2D3"></path><g style="opacity:0.2"><path d="M560.22,170a14.19,14.19,0,0,1,13.11-6,11.63,11.63,0,0,1,6.5,2.89c2.73,2.51,6.58,5.54,6.76,9.25s-1.66,9.47-2.63,13c-3,10.93-7.51,22.5-11.82,33l-32.31-15.28,13.65-26a90.37,90.37,0,0,1,6.63-10.74Z"></path></g><path d="M561.67,213.36A18.63,18.63,0,0,1,559,211c-.79-.77-1.71-1.7-2.69-2.77a21.59,21.59,0,0,1-2.93-3.74,16.51,16.51,0,0,0-2.88-3.62,7.65,7.65,0,0,0-3.25-1.78,6.67,6.67,0,0,0-3.43.14,2.25,2.25,0,0,1,.87-.41,5.31,5.31,0,0,1,2.64-.08,7.62,7.62,0,0,1,3.49,1.77,16,16,0,0,1,3,3.7,23,23,0,0,0,2.84,3.7c1,1.08,1.85,2,2.6,2.83l1.77,1.9A3.43,3.43,0,0,1,561.67,213.36Z" style="fill:#e0e0e0"></path><path d="M564,198.4a8.92,8.92,0,0,1-2.4-1,41.28,41.28,0,0,1-5.3-3.3,34.54,34.54,0,0,1-4.72-4.1A7.71,7.71,0,0,1,550,188c.07,0,.67.72,1.82,1.81a46.93,46.93,0,0,0,4.76,3.94c2,1.42,3.8,2.6,5.17,3.4A22.47,22.47,0,0,1,564,198.4Z" style="fill:#e0e0e0"></path><path d="M565.74,188.73a29,29,0,0,1-6.46-3.49,36.62,36.62,0,0,1-4.16-3.12,6,6,0,0,1-1.46-1.59,17,17,0,0,1,1.69,1.31c1,.81,2.54,1.86,4.22,3s3.23,2.06,4.36,2.75A11.28,11.28,0,0,1,565.74,188.73Z" style="fill:#e0e0e0"></path><path d="M561.18,165.73l23.44-13.35s11.2,4.58,18.27,12.88c9.31,10.94,13.68,26,15.21,39.53,1.3,11.56,6.94,68.53,6.94,68.53H564.75l0-38.22Z" style="fill:#90C2D3"></path><g style="opacity:0.2"><path d="M564.68,249.84c3.27,1.6,7.38.6,10.18-1.72s4.48-5.75,5.57-9.22c1-3.11,1.58-6.42,3.41-9.11,1.37-2,3.33-3.55,4.9-5.42,4.71-5.62,5.3-13.51,5.69-20.83a72.7,72.7,0,0,0-5.73,12.53c-.61,1.76-2.23,5.33-2.23,5.33l-4.58-2.21c-5.74,9.93-11.28,18.49-17,28.41"></path></g><path d="M618.73,212.3s-.46-.06-1.27-.05a8.11,8.11,0,0,0-3.31.85,26.69,26.69,0,0,0-4.35,2.76,12.25,12.25,0,0,1-5.87,2.59,12.59,12.59,0,0,1-6.25-1.48c-1.77-.84-3.33-1.65-4.65-2.32L589.92,213a6.54,6.54,0,0,1-1.11-.66,6.9,6.9,0,0,1,1.2.47l3.18,1.47,4.69,2.22a12.32,12.32,0,0,0,6,1.39,12.08,12.08,0,0,0,5.65-2.46,24.47,24.47,0,0,1,4.47-2.71,7.82,7.82,0,0,1,3.46-.71,4.28,4.28,0,0,1,.95.14A1.19,1.19,0,0,1,618.73,212.3Z" style="fill:#e0e0e0"></path><path d="M621.16,235.56s-.56-.41-1.63-1a13.34,13.34,0,0,0-4.9-1.43,22.41,22.41,0,0,0-7.57.57c-2.82.62-5.84,1.66-9.11,2.45a29.6,29.6,0,0,1-17-.81,26.36,26.36,0,0,1-4.73-2.19c-.53-.3-.92-.58-1.19-.76s-.41-.28-.4-.3.61.32,1.69.88a29.55,29.55,0,0,0,4.75,2,30.57,30.57,0,0,0,7.49,1.47,29.84,29.84,0,0,0,9.28-.82c3.24-.77,6.27-1.81,9.12-2.41a22.55,22.55,0,0,1,7.73-.47,13,13,0,0,1,5,1.62,8.45,8.45,0,0,1,1.17.82A2.39,2.39,0,0,1,621.16,235.56Z" style="fill:#e0e0e0"></path><path d="M564.76,253a2.34,2.34,0,0,1,.49-.38c.17-.11.4-.2.66-.34a6.72,6.72,0,0,1,1-.26c1.55-.3,3.79.25,6.28,1.3a35.67,35.67,0,0,0,4.15,1.47,22,22,0,0,0,5,.73,45.53,45.53,0,0,0,11.48-1.31c4-.88,7.84-1.93,11.4-2.5a37.21,37.21,0,0,1,9.53-.5,20.37,20.37,0,0,1,6.25,1.55,11.09,11.09,0,0,1,1.56.78,2.37,2.37,0,0,1,.52.33,3.29,3.29,0,0,1-.57-.24,17.23,17.23,0,0,0-1.59-.69,22.05,22.05,0,0,0-6.2-1.37,38.8,38.8,0,0,0-9.42.61c-3.53.59-7.32,1.66-11.37,2.54A44.91,44.91,0,0,1,582.28,256a24,24,0,0,1-9.24-2.34c-2.47-1.08-4.62-1.66-6.11-1.44A5.67,5.67,0,0,0,564.76,253Z" style="fill:#e0e0e0"></path><path d="M623.21,265.54c0,.07-.81-.29-2.32-.51a15.48,15.48,0,0,0-6.37.73c-2.62.78-5.57,2.21-8.94,3.61a43.24,43.24,0,0,1-11.51,2.91,46.29,46.29,0,0,1-11.87-.16,44.35,44.35,0,0,1-9.39-2.43A19.37,19.37,0,0,1,571,269l-1.6-.71c-1-.51-1.82-.92-2.49-1.31l-1.51-.93a2.61,2.61,0,0,1-.51-.36,3.51,3.51,0,0,1,.56.27l1.56.84c.68.36,1.54.75,2.51,1.23l1.61.67c.57.25,1.18.48,1.83.7a45.79,45.79,0,0,0,9.33,2.29,46.71,46.71,0,0,0,11.74.13,44.51,44.51,0,0,0,11.39-2.84,93.22,93.22,0,0,1,9-3.52,15.06,15.06,0,0,1,6.5-.58A8,8,0,0,1,623.21,265.54Z" style="fill:#e0e0e0"></path><path d="M615.3,189.83s-.24-.18-.71-.38a3.54,3.54,0,0,0-2.08-.16,7,7,0,0,0-2.81,1.45,33,33,0,0,1-3.29,2.35,24.91,24.91,0,0,1-6.78,2.83,19.4,19.4,0,0,1-2.19.41c-.53.06-.82.07-.82,0s1.13-.27,2.91-.8a28.35,28.35,0,0,0,6.61-2.92,38.79,38.79,0,0,0,3.27-2.28,6.9,6.9,0,0,1,3-1.43,3.5,3.5,0,0,1,2.24.34C615.16,189.54,615.32,189.81,615.3,189.83Z" style="fill:#e0e0e0"></path><path d="M596.62,168.87a25.55,25.55,0,0,1,6.27-3.61,12.12,12.12,0,0,1-3,2A12.62,12.62,0,0,1,596.62,168.87Z" style="fill:#e0e0e0"></path><path d="M570.9,179.05a4.06,4.06,0,0,1-1.34-.39,28.57,28.57,0,0,0-3.14-1c-2.51-.63-4.59.17-4.62,0a2.93,2.93,0,0,1,1.31-.52,7.62,7.62,0,0,1,3.43,0,15.14,15.14,0,0,1,3.16,1.22C570.47,178.71,570.93,179,570.9,179.05Z" style="fill:#e0e0e0"></path><path d="M589.9,155a6.17,6.17,0,0,1-.78,1,22.8,22.8,0,0,1-2.45,2.49,34,34,0,0,1-9.92,5.79c-4.18,1.68-8.12,2.72-10.89,3.65-1.4.45-2.51.85-3.28,1.14a5.64,5.64,0,0,1-1.21.41,7,7,0,0,1,1.13-.6c.75-.35,1.85-.8,3.24-1.3,2.76-1,6.67-2.12,10.82-3.78a37.36,37.36,0,0,0,9.88-5.59,31.17,31.17,0,0,0,2.53-2.35A5.9,5.9,0,0,1,589.9,155Z" style="fill:#e0e0e0"></path><path d="M560.3,208.32a2.21,2.21,0,0,1-.17.4l-.56,1.11L557.4,214c-1.91,3.62-4.61,8.7-7.81,14.76l0,.06-.07,0-18.05,8.4L503.81,250l-8.39,3.8-2.29,1a7.85,7.85,0,0,1-.82.32,5.11,5.11,0,0,1,.77-.42l2.25-1.1,8.33-4,27.55-12.86,18.08-8.35-.11.1c3.28-6,6-11.07,8-14.67l2.29-4.12.61-1.08A2.89,2.89,0,0,1,560.3,208.32Z" style="fill:#eb996e"></path><path d="M560.3,208.32l-10.86,20.57-49,22.79-9.51,4.17a12.16,12.16,0,0,1-3.94-.95,18,18,0,0,1-4.42-2.45c-1.15-1-3-.17-2.71,1.22s3.35,4.37,8.12,5.92-5.26,6.5-7.92,7.59c.35,2.6,5,1,5.5,2.39a2.54,2.54,0,0,0-1.57,3.72c.41.92,2.5.46,3.9,0a1.64,1.64,0,0,1,2,.83l.4.81c1.2,2.57,5.66.26,5.66.26s4-1.89,4.95-2.61c.39-.28,4-1.95,6.6-3.08l0,.05,1.12-.54h0c7.13-3.49,39.77-15.43,53.42-20.39a16.27,16.27,0,0,0,9-7.92l10.95-21.54Z" style="fill:#ffbe9d"></path><path d="M600.85,186.71c-5.39,11.45-11.48,28.42-14.41,34.47l-30.12-14.82,18.25-34.15c4.23-6.5,11.92-8.44,18.91-5.09h0C601.16,170.79,604.48,179,600.85,186.71Z" style="fill:#90C2D3"></path><path d="M556.32,206.36a2.15,2.15,0,0,1,.16-.34l.52-1,2.07-4c1.83-3.48,4.46-8.48,7.71-14.64,1.64-3.1,3.43-6.49,5.36-10.12a26.9,26.9,0,0,1,3.36-5.46A15.42,15.42,0,0,1,588,165.51a15.92,15.92,0,0,1,7.11,2.17,15.55,15.55,0,0,1,5.42,5.48,16.24,16.24,0,0,1,1.55,3.66,15.61,15.61,0,0,1,.56,4,15.32,15.32,0,0,1-1.14,6c-.75,1.84-1.55,3.63-2.31,5.41-1.53,3.56-3,7-4.47,10.4l-8.06,18.69-.09.21-.2-.1-21.9-10.9-6.05-3-1.57-.8c-.35-.18-.51-.28-.51-.28l.57.26,1.63.78,6.14,2.95L586.54,221l-.29.11,8-18.72c1.45-3.36,2.93-6.84,4.46-10.4.76-1.78,1.55-3.58,2.3-5.41a14.8,14.8,0,0,0,1.1-5.76,15.1,15.1,0,0,0-.54-3.85,15.83,15.83,0,0,0-1.5-3.54,15,15,0,0,0-5.23-5.3A15.22,15.22,0,0,0,588,166a15,15,0,0,0-12.11,5.11,26.88,26.88,0,0,0-3.31,5.34l-5.39,10L559.27,201l-2.17,4-.57,1C556.4,206.24,556.32,206.36,556.32,206.36Z" style="fill:#263238"></path><path d="M489.15,268.42a8.33,8.33,0,0,1-8.91-.67,13.23,13.23,0,0,0,8.91.67Z" style="fill:#eb996e"></path><path d="M590.63,207.77a5.32,5.32,0,0,1-1.27.22c-.82.1-2,.22-3.49.29a27.41,27.41,0,0,1-5.21-.22,14.94,14.94,0,0,1-6-2.17,33.92,33.92,0,0,1-4.73-4.28,14.38,14.38,0,0,0-4.08-3,7.46,7.46,0,0,0-3.31-.76c-.81,0-1.25.18-1.26.13s.1-.06.3-.14a4.34,4.34,0,0,1,1-.19,7.1,7.1,0,0,1,3.47.62,14.34,14.34,0,0,1,4.26,3,35,35,0,0,0,4.69,4.19,15,15,0,0,0,5.81,2.14,29.09,29.09,0,0,0,5.13.32c1.47,0,2.66-.09,3.48-.13A8,8,0,0,1,590.63,207.77Z" style="fill:#e0e0e0"></path><path d="M596.62,196.36a4.9,4.9,0,0,1-1.27.15,19.65,19.65,0,0,1-3.46-.16,17.06,17.06,0,0,1-5-1.37,18,18,0,0,1-5-3.89c-1.55-1.6-3-3.18-4.41-4.4a13.81,13.81,0,0,0-4.32-2.54,8.46,8.46,0,0,0-3.33-.5c-.8.06-1.23.19-1.25.14s.1-.06.31-.13a5.13,5.13,0,0,1,.92-.21,7.94,7.94,0,0,1,3.47.35,13.54,13.54,0,0,1,4.5,2.52,59.32,59.32,0,0,1,4.49,4.4,18,18,0,0,0,4.8,3.82,17.6,17.6,0,0,0,4.82,1.44A42.22,42.22,0,0,0,596.62,196.36Z" style="fill:#e0e0e0"></path><path d="M602,181.62a4.85,4.85,0,0,1-1.2,0l-3.25-.18-4.81-.33c-1.81-.14-3.81-.29-5.9-.64a20.09,20.09,0,0,1-5.72-1.69,10.52,10.52,0,0,1-3.58-3.31A16,16,0,0,1,576,172.6a4.54,4.54,0,0,1-.38-1.14,37,37,0,0,0,2.24,3.81,10.49,10.49,0,0,0,3.52,3.09,20.86,20.86,0,0,0,5.58,1.61c2,.34,4,.51,5.85.67l4.81.44,3.23.34A5.13,5.13,0,0,1,602,181.62Z" style="fill:#e0e0e0"></path><path d="M492.31,271.56a9.12,9.12,0,0,1-8.16,1.86,38.55,38.55,0,0,0,4.19-.45A35.55,35.55,0,0,0,492.31,271.56Z" style="fill:#eb996e"></path></g><g id="freepik--Dog--inject-14"><path d="M433,334.11a10.39,10.39,0,0,0-4.39,11.09,10.7,10.7,0,0,0,9.62,8.06,10,10,0,0,0,6.6-17.82c-3.29-2.6-8.35-3.66-11.83-1.33" style="fill:#90C2D3"></path><g style="opacity:0.30000000000000004"><path d="M433,334.11a10.39,10.39,0,0,0-4.39,11.09,10.7,10.7,0,0,0,9.62,8.06,10,10,0,0,0,6.6-17.82c-3.29-2.6-8.35-3.66-11.83-1.33" style="fill:#fff"></path></g><path d="M434.41,352.18a13.79,13.79,0,0,0,1.34-2.18,6.8,6.8,0,0,0-4.71-9.49,15.22,15.22,0,0,0-2.54-.26,1.7,1.7,0,0,1,.69-.17,5.93,5.93,0,0,1,1.93.07,6.92,6.92,0,0,1,5,10,6,6,0,0,1-1.11,1.58C434.65,352.06,434.44,352.2,434.41,352.18Z" style="fill:#fafafa"></path><path d="M447.55,347.85a1.64,1.64,0,0,1-.73-.07,7.55,7.55,0,0,1-1.89-.65,9.74,9.74,0,0,1-4.5-4.74,10,10,0,0,1-.54-6.52,9.08,9.08,0,0,1,.7-1.87c.22-.42.37-.63.4-.62s-.42,1-.74,2.57a10.39,10.39,0,0,0,.65,6.22,10.08,10.08,0,0,0,4.2,4.63A25.45,25.45,0,0,0,447.55,347.85Z" style="fill:#fafafa"></path><path d="M377,358.53c1.59-1.43,2.71-3.41,1.88-5.33l-.05-.15s0,0,0,0h0a3.77,3.77,0,0,0-.91-1.32,6.47,6.47,0,0,0-3.07-1.44c-3.7-.81-7.61.08-11.33-.65a15.32,15.32,0,0,0,2.14,6.24,9.27,9.27,0,0,0,5.13,4A6.67,6.67,0,0,0,377,358.53Z" style="fill:#455a64"></path><path d="M378.73,360c-.12-1.82-.84-3.6-2.56-4.07l-.13,0h0a3.46,3.46,0,0,0-1.36-.09,5.46,5.46,0,0,0-2.57,1.29c-2.5,2-4,5.12-6.42,7.21a12.91,12.91,0,0,0,5.28,1.86,7.87,7.87,0,0,0,5.37-1.31A5.69,5.69,0,0,0,378.73,360Z" style="fill:#455a64"></path><path d="M378.67,359.74a2.65,2.65,0,1,1,.88-5.07" style="fill:#455a64"></path><path d="M338.79,424.41c-7.54,2.38-15.66-4-17.87-11.56s0-15.74,2.77-23.14,6.23-14.76,6.64-22.66c.46-9.07-3.7-18.58-11.49-23.25s-19-3.41-24.67,3.72-3.49,19.39,4.74,23.22c-2.2-1.22-4.51-2.48-7-2.56s-5.29,1.43-5.73,3.91,1.44,4.69,3.44,6.17,4.34,2.69,5.58,4.84c1.95,3.39.45,7.61-.48,11.41a35.75,35.75,0,0,0,52.79,39.29" style="fill:#90C2D3"></path><g style="opacity:0.30000000000000004"><path d="M336.82,425c-.91.69-2.25-.3-3.35,0A2.79,2.79,0,0,0,332,427a12,12,0,0,0-.73,6.45,5.75,5.75,0,0,0,4.22,4.54,1.45,1.45,0,0,0,1.55-.46,1.69,1.69,0,0,0,.14-.89l-.3-11.08"></path></g><path d="M369.4,466.27l-5.8-34.53,23.18-6.12c4.66,1.27,8.78,5.06,11,10.1s1.28,13.61-.47,18.92a46.53,46.53,0,0,1,13.71,1.6c4.31,1.47,8.48,4.57,7.85,9.87Z" style="fill:#90C2D3"></path><path d="M369.4,466.27l-5.8-34.53,23.18-6.12c4.66,1.27,8.78,5.06,11,10.1s1.28,13.61-.47,18.92a46.53,46.53,0,0,1,13.71,1.6c4.31,1.47,8.54,4.74,7.91,10Z" style="fill:#90C2D3"></path><g style="opacity:0.30000000000000004"><path d="M369.4,466.27l-5.8-34.53,23.18-6.12c4.66,1.27,8.78,5.06,11,10.1s1.28,13.61-.47,18.92a46.53,46.53,0,0,1,13.71,1.6c4.31,1.47,8.54,4.74,7.91,10Z"></path></g><path d="M446.25,396l18.17-16.11,3.31,7s-17.81,30.62-20.89,30.18-11.45-12.55-20.92-7.26l-7-7.93,10.6-22L446.23,396" style="fill:#90C2D3"></path><path d="M347.87,466.27h56.39c-.27-13.09-9.8-11.64-9.8-11.64h-13c7.13-4,9.2-14.23,9.2-14.23,13.61-3.65,24.5-19.79,24.5-19.79l10.61-21.91.55,7.91,4.9-10C435.84,378.91,422,353,422,353l10.89.31c0-5.79-7.08-5.79-12.25-7s-3.26-7.92-3.26-7.92,12.24,1.53,17.14-4.26,2.45-14,2.45-14l-17.69,2.13c-2.45-2.74-11.16-6.69-16.88-5.17s-16.33,9.74-18.23,14.3-2.73,19.18-3.7,31.66-8.83,20.69-15.9,28.61S347.1,405.09,340,413.61c-2.21,2.67-3.31,7.26-3.77,12.32A57.74,57.74,0,0,0,345.68,463Z" style="fill:#90C2D3"></path><path d="M426.93,389.16c0,.45.34,67.07.34,67.07s12.64,1,14.37,10h-22.7S405,425.35,400.7,421.89a62.92,62.92,0,0,0-11.24-6.55l6.34-2.67-4.33-5.48s2,2.31,4.62-1.44" style="fill:#90C2D3"></path><path d="M399.92,324.48a2.19,2.19,0,0,1,.05.53c0,.41,0,.91,0,1.52,0,1.4,0,3.3,0,5.6s0,5.2,0,8.3a44.09,44.09,0,0,1-.19,4.93,13.49,13.49,0,0,1-1.48,5.12,7.13,7.13,0,0,1-4.12,3.37,8.3,8.3,0,0,1-5-.15,8.9,8.9,0,0,1-3.78-2.45,10.38,10.38,0,0,1-2-3.38,13,13,0,0,1-.65-5.58,11.19,11.19,0,0,1,.23-1.51,1.73,1.73,0,0,1,.15-.51c.05,0-.11.72-.18,2a13.48,13.48,0,0,0,.8,5.44,10,10,0,0,0,1.95,3.22,8.65,8.65,0,0,0,3.61,2.29,7.89,7.89,0,0,0,4.67.11,6.62,6.62,0,0,0,3.82-3.14,13.18,13.18,0,0,0,1.43-4.92,45.36,45.36,0,0,0,.21-4.87c.05-3.11.09-5.91.12-8.3s.09-4.2.12-5.6c0-.61.05-1.11.06-1.52A1.84,1.84,0,0,1,399.92,324.48Z" style="fill:#263238"></path><path d="M431.64,320.88a3.64,3.64,0,0,0,.64,2.62,5,5,0,0,0,2.08,1.53,4.74,4.74,0,0,0,3.28.49,13.44,13.44,0,0,0-.16-4.15,1.55,1.55,0,0,0-.59-1.1,1.52,1.52,0,0,0-.7-.15,11.07,11.07,0,0,0-4.55.76" style="fill:#263238"></path><path d="M460.69,384.33c1.95-2.49,3.76-4.79,5.58-6a10.84,10.84,0,0,1,6.52-2.05,7,7,0,0,1,5.77,3.31,5.26,5.26,0,0,1-.84,6.37,7.46,7.46,0,0,1-5,1.73,4.37,4.37,0,0,1-2.74-.84,2.5,2.5,0,0,1-.46-3.06l-2.08,3.67Z" style="fill:#90C2D3"></path><path d="M426.93,452.16c-.14,0-.18-14.25-.09-31.81s.29-31.8.43-31.8.19,14.24.09,31.81S427.07,452.16,426.93,452.16Z" style="fill:#263238"></path><path d="M401.12,466.27c-.08,0,.06-.69,0-1.77a7.54,7.54,0,0,0-4.57-6.51c-1-.43-1.68-.53-1.66-.61a3.3,3.3,0,0,1,1.79.27,7.14,7.14,0,0,1,4.81,6.84A3.39,3.39,0,0,1,401.12,466.27Z" style="fill:#263238"></path><path d="M365.16,425.43a2.94,2.94,0,0,1,.48-.22,12.8,12.8,0,0,1,1.43-.52,21.54,21.54,0,0,1,5.5-.95,19.43,19.43,0,0,1,8.17,1.4,17.46,17.46,0,0,1,7.92,6.27,14,14,0,0,1,2.06,4.88,15.29,15.29,0,0,1,.15,4.94,17.2,17.2,0,0,1-3,7.71,25.63,25.63,0,0,1-3.83,4.07c-.49.44-.89.76-1.16,1a2.08,2.08,0,0,1-.43.31,2.62,2.62,0,0,1,.36-.39l1.09-1.05a29.11,29.11,0,0,0,3.67-4.13,17.12,17.12,0,0,0,2.81-7.56,15.09,15.09,0,0,0-.17-4.77,13.55,13.55,0,0,0-2-4.7,17.2,17.2,0,0,0-7.68-6.12,19.51,19.51,0,0,0-8-1.47,23.48,23.48,0,0,0-5.47.77C365.86,425.22,365.18,425.48,365.16,425.43Z" style="fill:#263238"></path><path d="M408,433.91s-.08-.09-.21-.28l-.52-.85c-.44-.74-1.07-1.84-1.83-3.25s-1.66-3.11-2.61-5.09a51.34,51.34,0,0,1-2.79-6.76l.45.05c-.62,1.15-1.26,2.36-1.91,3.61l-.24.44-.22-.45a10.8,10.8,0,0,1-1-5.85,10.49,10.49,0,0,1,.37-1.87l.45.23-3.29,4.29-.35.46-.09-.57a40.21,40.21,0,0,1,.35-14.87,34.58,34.58,0,0,1,1.16-4.19c.16-.48.31-.84.4-1.08a1.87,1.87,0,0,1,.17-.37,10.93,10.93,0,0,1-.41,1.51c-.28,1-.66,2.38-1,4.19a42.1,42.1,0,0,0-.17,14.72l-.45-.11,3.28-4.3.84-1.11-.39,1.34a10.75,10.75,0,0,0-.34,1.78,10.41,10.41,0,0,0,1,5.58h-.45l1.93-3.6.27-.52.17.56a55.54,55.54,0,0,0,2.7,6.72c.92,2,1.78,3.71,2.5,5.13l1.71,3.32A11,11,0,0,1,408,433.91Z" style="fill:#263238"></path><path d="M438.47,466.27c-.08,0-.15-.68-.51-1.72a8.71,8.71,0,0,0-5.9-5.62c-1.05-.3-1.74-.34-1.74-.42a3.63,3.63,0,0,1,1.83.07,8.17,8.17,0,0,1,3.92,2.06,8.06,8.06,0,0,1,2.24,3.81A3.68,3.68,0,0,1,438.47,466.27Z" style="fill:#263238"></path><path d="M467.49,377.81a5.44,5.44,0,0,1-.9.84L464,380.79c-2.15,1.8-5.12,4.29-8.35,7.1s-6.12,5.41-8.2,7.3L445,397.41a5.6,5.6,0,0,1-.95.77,5.34,5.34,0,0,1,.81-.92c.54-.56,1.35-1.37,2.36-2.34,2-2,4.87-4.6,8.1-7.42s6.26-5.27,8.47-7c1.11-.86,2-1.55,2.66-2A6.39,6.39,0,0,1,467.49,377.81Z" style="fill:#263238"></path><path d="M473.22,383.41c-.05.06-.3-.14-.74-.3a2.64,2.64,0,0,0-1.77,0,2.69,2.69,0,0,0-1.34,1.15c-.24.41-.3.72-.38.71s-.14-.34.05-.86a2.47,2.47,0,0,1,3.59-1.29C473.11,383.06,473.27,383.37,473.22,383.41Z" style="fill:#263238"></path><g style="opacity:0.30000000000000004"><path d="M426.92,409l5.54-.79a1.94,1.94,0,0,0,1.06-.38c.49-.45.38-1.24.23-1.88a63.32,63.32,0,0,0-6.38-16.14c-.51,6.67-.7,13.37-.55,20.06"></path></g><g style="opacity:0.30000000000000004"><path d="M395.06,398.49a31.27,31.27,0,0,0-4.18,11.36,14.93,14.93,0,0,0,3,11.44,23.43,23.43,0,0,0,4.64,3.83l4.79,3.3a13.85,13.85,0,0,0-3.39-9.92c-.37,1-.73,2.05-1.1,3.07a8.45,8.45,0,0,1-1.63-7.14L393.89,418a98.8,98.8,0,0,1,1.84-19.41"></path></g><g style="opacity:0.30000000000000004"><path d="M382.93,343.4c.1,3.12.55,6.59,2.38,9.13a8.8,8.8,0,0,0,8.06,3.82c3.8-.55,6.54-4.2,7.28-8s-.08-7.65-.91-11.4c.2,3.5.38,7.11-.83,10.4s-4.16,6.21-7.67,6.21a7.63,7.63,0,0,1-6.12-3.42,11,11,0,0,1-2.19-6.77"></path></g><g style="opacity:0.30000000000000004"><path d="M378.47,359.57c1.7,9.32,11.37,16,19.86,20.32s17.94,6.51,27.42,7.62a30.1,30.1,0,0,0,5.61.27c1.14-.09,2.53-.54,2.68-1.67s-1.19-2-2.33-2.44a317.71,317.71,0,0,1-36-16.64c-5.26-2.85-10.56-5.88-16.42-7.1"></path></g><path d="M378.94,353.58a10.58,10.58,0,0,0-1.47.35,3.23,3.23,0,0,0-.62,5.64,11.64,11.64,0,0,0,1.35.66,2.09,2.09,0,0,1-1.55-.35,3.46,3.46,0,0,1-1.25-1.25,3.53,3.53,0,0,1,.45-4.11,3.5,3.5,0,0,1,1.5-.94A2,2,0,0,1,378.94,353.58Z" style="fill:#263238"></path><path d="M378.7,357.7c-.14,0-.44-.87-1.14-1.79s-1.47-1.46-1.39-1.6,1.05.26,1.81,1.29S378.84,357.69,378.7,357.7Z" style="fill:#263238"></path><path d="M378,356.3c.1.1-.35.67-1.1,1.12s-1.46.58-1.5.44.53-.46,1.23-.89S377.88,356.19,378,356.3Z" style="fill:#263238"></path><path d="M374.34,357.25a8,8,0,0,0-1.61.32,7.67,7.67,0,0,0-3.06,2.47,32.06,32.06,0,0,1-3.95,4.24,32.48,32.48,0,0,1,3.56-4.58,7,7,0,0,1,3.33-2.48A2.19,2.19,0,0,1,374.34,357.25Z" style="fill:#263238"></path><path d="M374,362.21c-.09-.12.52-.69,1.16-1.47s1.09-1.47,1.22-1.41-.13.91-.82,1.74S374,362.32,374,362.21Z" style="fill:#263238"></path><path d="M373.42,360.19c0-.14.52-.39,1.2-.67s1.26-.48,1.34-.35-.42.54-1.14.84S373.45,360.33,373.42,360.19Z" style="fill:#263238"></path><path d="M371.59,354.24c0-.14.91-.45,2.1-.28s2,.72,1.95.83-.92-.17-2-.31S371.61,354.39,371.59,354.24Z" style="fill:#263238"></path><path d="M373,352.09c0-.14,1-.08,1.85.68s1,1.72.89,1.74-.49-.7-1.24-1.35S372.92,352.24,373,352.09Z" style="fill:#263238"></path><path d="M378.47,359.57c2.1,4.43,5.21,7,9,10a75.75,75.75,0,0,0,39.88,16.75,11.63,11.63,0,0,0,3.77-.07,4.49,4.49,0,0,0,3-2.08c.77-1.4.47-3.12.11-4.67a104.69,104.69,0,0,0-4-13.43,2.87,2.87,0,0,0-.53-1c-.79-.82-1.08-.8-2.16-.4-7.81,2.87-17.61,1.94-25.61-.39s-15.09-5.54-23.35-6.58Z" style="fill:#455a64"></path><path d="M431.28,369.36l-.56.1-1.59.27c-.69.12-1.54.26-2.53.35s-2.12.26-3.38.31-2.62.17-4.1.15-3.06,0-4.72-.1A78.39,78.39,0,0,1,403.7,369a77.4,77.4,0,0,1-10.37-3c-1.55-.61-3-1.16-4.36-1.8s-2.58-1.21-3.69-1.79-2.1-1.15-3-1.65-1.59-.94-2.18-1.34l-1.35-.88-.46-.32.49.28,1.37.86c.59.38,1.32.83,2.19,1.3s1.84,1.08,3,1.62,2.34,1.19,3.7,1.76,2.81,1.18,4.36,1.78a78.48,78.48,0,0,0,10.34,3,79.5,79.5,0,0,0,10.68,1.43c1.65.07,3.22.17,4.7.13s2.84-.05,4.09-.13,2.38-.18,3.37-.28,1.85-.2,2.54-.31l1.6-.23C431.08,369.37,431.28,369.36,431.28,369.36Z" style="fill:#e0e0e0"></path><path d="M433.91,377.36s-.84.17-2.39.4a61,61,0,0,1-6.58.55,61.77,61.77,0,0,1-40.54-13.58,58.66,58.66,0,0,1-4.92-4.4c-1.1-1.11-1.67-1.76-1.67-1.76l.45.44c.3.28.71.73,1.27,1.26,1.12,1.09,2.78,2.61,5,4.35a62.64,62.64,0,0,0,40.45,13.54,64.51,64.51,0,0,0,6.57-.48c.78-.09,1.37-.2,1.78-.25Z" style="fill:#e0e0e0"></path><path d="M384.77,367s0-.11-.09-.31a6,6,0,0,1-.1-.85,8.53,8.53,0,0,1,.3-2.81,8.74,8.74,0,0,1,1.21-2.56,7.28,7.28,0,0,1,.54-.67c.14-.15.22-.22.23-.21s-.26.36-.64,1a9.65,9.65,0,0,0-1.14,2.54,10,10,0,0,0-.36,2.75C384.73,366.59,384.8,367,384.77,367Z" style="fill:#e0e0e0"></path><path d="M380.69,363.42a2.46,2.46,0,0,1,0-.78,8.75,8.75,0,0,1,.5-1.82,8.6,8.6,0,0,1,.88-1.66,2.44,2.44,0,0,1,.51-.6,23.55,23.55,0,0,0-1.2,2.34A26.13,26.13,0,0,0,380.69,363.42Z" style="fill:#e0e0e0"></path><path d="M390.1,371.53a14.66,14.66,0,0,1,.45-1.49,28.34,28.34,0,0,0,1.25-7.38c0-1,0-1.56.06-1.56a1.46,1.46,0,0,1,.05.42c0,.27,0,.66,0,1.14a22.75,22.75,0,0,1-.33,3.76,23.18,23.18,0,0,1-.93,3.66c-.16.46-.3.82-.41,1.07A2.73,2.73,0,0,1,390.1,371.53Z" style="fill:#e0e0e0"></path><path d="M399,377.45a3.47,3.47,0,0,1-.19-.52c-.11-.34-.24-.84-.38-1.46a20.56,20.56,0,0,1,.32-9.86,12.59,12.59,0,0,1,.47-1.43,2.1,2.1,0,0,1,.22-.5,3.37,3.37,0,0,1-.15.53c-.11.34-.25.83-.4,1.44a23.26,23.26,0,0,0-.69,4.88,22.78,22.78,0,0,0,.38,4.91c.11.62.22,1.12.31,1.47A3.56,3.56,0,0,1,399,377.45Z" style="fill:#e0e0e0"></path><path d="M408.77,382a2.61,2.61,0,0,1-.23-.61c-.13-.4-.3-1-.49-1.72a41.52,41.52,0,0,1-1.05-5.81,41.94,41.94,0,0,1-.19-5.9c0-.75.08-1.36.13-1.78a5.11,5.11,0,0,1,.08-.65,2.71,2.71,0,0,1,0,.65c0,.42,0,1-.06,1.79a47,47,0,0,0,1.23,11.66c.17.74.32,1.33.43,1.73A4.73,4.73,0,0,1,408.77,382Z" style="fill:#e0e0e0"></path><path d="M416.55,366.38a2.88,2.88,0,0,1,.22.74,6.16,6.16,0,0,1,0,2.13c-.13.89-.45,1.92-.62,3.08a4.69,4.69,0,0,0,.67,3.59,9.57,9.57,0,0,0,1.47,1.31,3.27,3.27,0,0,1,1.14,1.5,4.42,4.42,0,0,1-.44,3.1c-.37.82-.69,1.46-.84,1.94s-.19.74-.21.74a3.35,3.35,0,0,1,.13-.77,16.27,16.27,0,0,1,.79-2,4.34,4.34,0,0,0,.39-3,3.18,3.18,0,0,0-1.09-1.4,9.31,9.31,0,0,1-1.5-1.34,4.84,4.84,0,0,1-.7-3.75c.19-1.18.52-2.2.67-3.07a6.81,6.81,0,0,0,.1-2.09C416.63,366.64,416.53,366.38,416.55,366.38Z" style="fill:#e0e0e0"></path><path d="M430.2,386.4a2,2,0,0,0,.7-.56,2.82,2.82,0,0,0,.34-2.35,7.4,7.4,0,0,0-2.11-2.95,8.25,8.25,0,0,1-1.32-1.77,8.72,8.72,0,0,1-.81-2.23,37.84,37.84,0,0,1-.58-4.52,14.08,14.08,0,0,0-.78-3.59,7,7,0,0,0-1.26-2.12c-.4-.43-.67-.62-.66-.64a4.25,4.25,0,0,1,.72.59,6.46,6.46,0,0,1,1.33,2.12,13.31,13.31,0,0,1,.84,3.62,41.11,41.11,0,0,0,.59,4.49,7.82,7.82,0,0,0,2.07,3.92,7.4,7.4,0,0,1,2.11,3,2.82,2.82,0,0,1-.42,2.43,1.52,1.52,0,0,1-.53.43C430.28,386.38,430.21,386.41,430.2,386.4Z" style="fill:#e0e0e0"></path><path d="M375.58,359.73a1.65,1.65,0,0,1-.19.42,7.07,7.07,0,0,1-.68,1,8.5,8.5,0,0,1-3.19,2.55,8.7,8.7,0,0,1-4,.78,6.82,6.82,0,0,1-1.23-.17c-.29-.06-.45-.11-.44-.13s.64.13,1.68.15a8.94,8.94,0,0,0,7.09-3.27C375.26,360.3,375.54,359.71,375.58,359.73Z" style="fill:#e0e0e0"></path><path d="M372.93,365.87a6,6,0,0,0-3.57-6s.11,0,.29.07a4.56,4.56,0,0,1,.74.35,5.41,5.41,0,0,1,2.66,4.46,5.76,5.76,0,0,1,0,.81C373,365.77,373,365.88,372.93,365.87Z" style="fill:#e0e0e0"></path><path d="M377,364.15s0-.51-.22-1.3A7,7,0,0,0,373,358.1c-.73-.35-1.23-.46-1.22-.49a1.19,1.19,0,0,1,.36.05,5.8,5.8,0,0,1,.92.31,6.75,6.75,0,0,1,2.55,1.94,6.86,6.86,0,0,1,1.33,2.91,5.85,5.85,0,0,1,.09,1A1.48,1.48,0,0,1,377,364.15Z" style="fill:#e0e0e0"></path><path d="M370.46,350.13a1.9,1.9,0,0,1-.81.63c-.56.31-1.43.47-2.26.89a7,7,0,0,0-2.48,2.29,2.65,2.65,0,0,1,.5-.89,5.39,5.39,0,0,1,1.88-1.59c.88-.43,1.75-.57,2.3-.83A7.66,7.66,0,0,0,370.46,350.13Z" style="fill:#e0e0e0"></path><path d="M376,350.36a1.64,1.64,0,0,1-.12.45,7.67,7.67,0,0,1-.5,1.15,10.61,10.61,0,0,1-6.2,5.2,7.32,7.32,0,0,1-1.22.29l-.45.05s.64-.14,1.63-.48a11.35,11.35,0,0,0,6.11-5.13C375.74,351,376,350.35,376,350.36Z" style="fill:#e0e0e0"></path><path d="M374.43,356s-.16-.06-.42-.21l-1.12-.66L369.2,353l-3.73-2.08-1.13-.62a2.34,2.34,0,0,1-.4-.25,2.13,2.13,0,0,1,.44.18l1.16.56c1,.5,2.31,1.2,3.76,2s2.75,1.61,3.67,2.2l1.08.71A2.25,2.25,0,0,1,374.43,356Z" style="fill:#e0e0e0"></path><path d="M352,405.09a8.52,8.52,0,0,1,1.64-2.49,8.64,8.64,0,0,1,2-2.16,8.52,8.52,0,0,1-1.64,2.49A8.64,8.64,0,0,1,352,405.09Z" style="fill:#263238"></path><path d="M353.3,405.53c-.12-.09.3-.88.92-1.77s1.23-1.54,1.35-1.46-.29.87-.92,1.76S353.42,405.61,353.3,405.53Z" style="fill:#263238"></path><path d="M356.65,406.07c-.15,0-.18-.74-.07-1.63s.3-1.58.45-1.56.17.74.07,1.63S356.79,406.09,356.65,406.07Z" style="fill:#263238"></path><path d="M383.13,387.43a5.19,5.19,0,0,1-.35-2.29,5.39,5.39,0,0,1,.17-2.32,5.22,5.22,0,0,1,.35,2.3A5.36,5.36,0,0,1,383.13,387.43Z" style="fill:#263238"></path><path d="M385,388a5.11,5.11,0,0,1-.56-4.79,20.38,20.38,0,0,1,.19,2.41A17,17,0,0,1,385,388Z" style="fill:#263238"></path><path d="M387.79,388.49a6.39,6.39,0,0,1-2-4.77,14.87,14.87,0,0,1,1,2.39A15.09,15.09,0,0,1,387.79,388.49Z" style="fill:#263238"></path><path d="M408.92,360.25c-.06.13-1-.26-1.73-1.28s-.76-2.07-.62-2.07.4.86,1,1.77S409,360.12,408.92,360.25Z" style="fill:#263238"></path><path d="M410.33,359.91c-.06.13-.8-.12-1.44-.81s-.82-1.45-.69-1.5.5.54,1.07,1.15S410.4,359.78,410.33,359.91Z" style="fill:#263238"></path><path d="M413.17,360.26c-.05.13-1.15-.3-2.14-1.34a3.78,3.78,0,0,1-1.24-2.2c.14-.07.69.88,1.62,1.84S413.25,360.13,413.17,360.26Z" style="fill:#263238"></path><path d="M387.69,339.14c-.15,0-.34-.69-.42-1.57s0-1.61.09-1.63.33.69.42,1.58S387.83,339.13,387.69,339.14Z" style="fill:#263238"></path><path d="M389.2,338.42c-.13.06-.52-.66-.62-1.64s.13-1.75.26-1.73.16.77.26,1.68S389.34,338.37,389.2,338.42Z" style="fill:#263238"></path><path d="M390.8,339.13c-.12.07-.67-.71-.93-1.84a3,3,0,0,1,0-2.06c.15,0,.24.89.49,1.94S390.94,339.06,390.8,339.13Z" style="fill:#263238"></path><path d="M356.31,442.12a14.55,14.55,0,0,1,1.06-5.33,7.07,7.07,0,0,1-.27,2.71A7.52,7.52,0,0,1,356.31,442.12Z" style="fill:#263238"></path><path d="M358,440.53c-.14,0-.14-.69,0-1.47s.38-1.4.52-1.37.14.68,0,1.46S358.09,440.55,358,440.53Z" style="fill:#263238"></path><path d="M297.76,387.51c-.15,0,0-1.8-.38-3.94s-1.17-3.75-1-3.82a7.47,7.47,0,0,1,1.54,3.73A7.36,7.36,0,0,1,297.76,387.51Z" style="fill:#263238"></path><path d="M437.54,326.89a2.77,2.77,0,0,1-.1.9,15.64,15.64,0,0,1-.68,2.37,17,17,0,0,1-1.64,3.29,10.45,10.45,0,0,1-3.19,3.2,14.14,14.14,0,0,1-4.2,1.65,21.89,21.89,0,0,1-6.08.56,3.2,3.2,0,0,1-.9-.12c0-.09,1.29-.05,3.33-.27a24.61,24.61,0,0,0,3.54-.64,14.67,14.67,0,0,0,4-1.62,10.52,10.52,0,0,0,3.06-3,19.15,19.15,0,0,0,1.7-3.15C437.21,328.14,437.45,326.87,437.54,326.89Z" style="fill:#263238"></path><path d="M412.17,326.53a1.64,1.64,0,1,0,.11,0" style="fill:#263238"></path><path d="M406,327.68c-.2.05-.48-.24-.66-.81a4,4,0,0,1,1.43-4.18c.49-.35.89-.4,1-.23.26.35-.46,1.31-.88,2.61S406.46,327.55,406,327.68Z" style="fill:#263238"></path><path d="M372.65,382.25a26.22,26.22,0,0,1-11.34,7.26,5.18,5.18,0,0,0,2.7.87,17.36,17.36,0,0,1-5.5,2.19,8.55,8.55,0,0,0,12.27-7.38" style="fill:#90C2D3"></path><path d="M278.1,368.71a5.35,5.35,0,0,1-.55-1.21A14.19,14.19,0,0,1,277,366c-.17-.58-.41-1.24-.57-2a31.72,31.72,0,0,1-.85-5.32,33.28,33.28,0,0,1,1.64-13,32.62,32.62,0,0,1,2.15-4.94c.34-.69.74-1.26,1.05-1.78a15.56,15.56,0,0,1,.88-1.29,5.92,5.92,0,0,1,.84-1c.09.06-1.06,1.57-2.44,4.27a34.35,34.35,0,0,0-2,4.92,38.59,38.59,0,0,0-1.42,6.35,38,38,0,0,0-.2,6.5,34.9,34.9,0,0,0,.73,5.27C277.46,366.93,278.2,368.68,278.1,368.71Z" style="fill:#263238"></path><path d="M270.64,364.5a3,3,0,0,1-.36-.8,14.85,14.85,0,0,1-.69-2.29A23.83,23.83,0,0,1,271.24,346a16.47,16.47,0,0,1,1.16-2.09c.31-.47.5-.72.53-.7s-.57,1.11-1.35,2.94A26.25,26.25,0,0,0,270,361.34C270.32,363.29,270.73,364.47,270.64,364.5Z" style="fill:#263238"></path><path d="M340.09,366.49c-.12,0,.1-1.81-.18-4.71a20.48,20.48,0,0,0-.34-2.35c-.13-.84-.38-1.72-.62-2.64a28.76,28.76,0,0,0-5.88-10.89c-.65-.71-1.24-1.4-1.88-2a22,22,0,0,0-1.77-1.58c-2.27-1.82-3.91-2.62-3.85-2.72a6,6,0,0,1,1.15.54,11.47,11.47,0,0,1,1.29.76,17.41,17.41,0,0,1,1.63,1.13,20.28,20.28,0,0,1,1.85,1.55,25.94,25.94,0,0,1,1.94,2,30.37,30.37,0,0,1,3.63,5.2,29.66,29.66,0,0,1,2.35,5.88,25.42,25.42,0,0,1,.59,2.7,20.24,20.24,0,0,1,.28,2.39c.08.73.05,1.4.06,2a10.69,10.69,0,0,1-.08,1.49A6.69,6.69,0,0,1,340.09,366.49Z" style="fill:#263238"></path></g></svg>
