<svg width="660" height="192" viewBox="0 0 660 192" fill="none" xmlns="http://www.w3.org/2000/svg">
<rect y="58" width="100" height="100" rx="25" fill="#0A3960"/>
<circle cx="50.6072" cy="107.798" r="43.3198" fill="#0A3960"/>
<path d="M60.5528 136.148C54.0666 150.725 49.2994 139.079 39.0502 134.519C28.8043 129.96 16.9621 134.215 23.4483 119.638C27.6817 110.124 40.5975 103.456 50.8434 108.015C61.0926 112.575 64.7863 126.634 60.5528 136.148ZM34.4143 93.0579C33.7607 97.9674 30.6391 101.604 27.4431 101.179C24.2437 100.752 22.1833 96.427 22.8369 91.5175C23.4873 86.6065 26.6089 82.9703 29.8097 83.3934C33.0043 83.8216 35.068 88.1483 34.4143 93.0579ZM81.8232 117.83C78.5726 121.572 73.9571 122.884 71.513 120.761C69.0707 118.642 69.7265 113.885 72.9804 110.144C76.2295 106.405 80.8432 105.088 83.2873 107.212C85.7281 109.334 85.0738 114.088 81.8232 117.83ZM55.9793 87.4027C54.4233 94.1039 50.0564 98.8142 46.2259 97.924C42.397 97.0305 40.5538 90.8775 42.113 84.1778C43.6723 77.478 48.0392 72.7678 51.8696 73.658C55.6968 74.5468 57.5385 80.703 55.9793 87.4027ZM74.3505 98.6078C70.3518 104.206 64.5172 106.893 61.3186 104.608C58.1201 102.324 58.7675 95.9317 62.7662 90.333C66.7635 84.7376 72.5996 82.0483 75.7981 84.3324C78.9952 86.6197 78.3492 93.0091 74.3505 98.6078Z" fill="white"/>
<path d="M118.808 77.968C118.808 76.176 118.211 74.768 117.016 73.744C116.504 73.232 116.12 72.8053 115.864 72.464C115.608 72.0373 115.48 71.44 115.48 70.672C115.48 70.16 115.523 69.776 115.608 69.52C116.035 67.3867 117.016 65.6373 118.552 64.272C120.173 62.8213 122.051 62.096 124.184 62.096C126.573 62.096 128.664 62.864 130.456 64.4H147.864C159.811 64.4 168.984 67.088 175.384 72.464C181.784 77.7547 184.984 85.1787 184.984 94.736C184.984 104.293 181.869 111.76 175.64 117.136C169.411 122.512 160.408 125.2 148.632 125.2H135.96V154H118.808V77.968ZM148.248 110.352C154.477 110.352 159.256 109.072 162.584 106.512C165.912 103.867 167.576 99.9413 167.576 94.736C167.576 89.616 165.912 85.776 162.584 83.216C159.256 80.5707 154.477 79.248 148.248 79.248H135.96V110.352H148.248ZM215.878 155.28C210.587 155.28 205.851 154.043 201.67 151.568C197.489 149.093 194.203 145.509 191.814 140.816C189.425 136.123 188.23 130.533 188.23 124.048C188.23 117.136 189.425 111.163 191.814 106.128C194.289 101.093 197.702 97.2533 202.054 94.608C206.491 91.9627 211.654 90.64 217.542 90.64C224.454 90.64 230.214 93.2427 234.822 98.448V91.92H251.078V136.592C251.078 139.579 251.334 142.053 251.846 144.016C252.358 145.979 253.169 147.941 254.278 149.904L240.582 155.28C238.022 152.464 236.571 149.264 236.23 145.68H235.974C233.585 148.752 230.641 151.141 227.142 152.848C223.729 154.469 219.974 155.28 215.878 155.28ZM219.334 141.84C224.283 141.84 228.038 140.261 230.598 137.104C233.158 133.861 234.438 129.552 234.438 124.176V121.872C234.438 116.923 233.158 112.741 230.598 109.328C228.123 105.829 224.539 104.08 219.846 104.08C215.067 104.08 211.398 105.787 208.838 109.2C206.363 112.613 205.126 117.563 205.126 124.048C205.126 129.851 206.321 134.288 208.71 137.36C211.185 140.347 214.726 141.84 219.334 141.84ZM281.898 155.28C279.253 155.28 277.247 154.725 275.882 153.616C274.602 152.507 273.962 150.928 273.962 148.88C273.962 148.112 274.005 147.515 274.09 147.088L274.218 146.32L258.73 91.92H276.138L284.074 128.656L293.93 94.608C294.357 93.2427 295.167 92.2613 296.362 91.664C297.557 90.9813 299.306 90.64 301.61 90.64C304.597 90.64 306.687 91.1093 307.882 92.048C309.162 92.9867 309.802 94.3947 309.802 96.272C309.802 97.1253 309.759 97.7653 309.674 98.192L309.162 101.008L316.97 128.656L324.778 91.92H342.186L326.698 146.32L326.826 147.088C326.911 147.515 326.954 148.112 326.954 148.88C326.954 150.928 326.271 152.507 324.906 153.616C323.626 154.725 321.663 155.28 319.018 155.28C316.287 155.28 314.239 154.811 312.874 153.872C311.509 152.933 310.57 151.525 310.058 149.648L300.458 115.856L290.858 149.648C290.346 151.525 289.407 152.933 288.042 153.872C286.677 154.811 284.629 155.28 281.898 155.28ZM375.164 181.904C367.484 181.904 359.975 180.027 352.636 176.272L357.628 164.112C362.833 166.843 368.679 168.208 375.164 168.208C381.564 168.208 386.044 166.629 388.604 163.472C391.164 160.315 392.444 155.835 392.444 150.032V146.576C390.311 148.88 387.751 150.715 384.764 152.08C381.777 153.36 378.492 154 374.908 154C366.204 154 359.207 151.269 353.916 145.808C348.625 140.261 345.98 132.411 345.98 122.256C345.98 115.515 347.175 109.755 349.564 104.976C351.953 100.197 355.239 96.5707 359.42 94.096C363.601 91.6213 368.423 90.384 373.884 90.384C382.076 90.384 388.945 93.584 394.492 99.984C394.919 96.2293 396.369 92.9867 398.844 90.256L412.54 95.632C411.431 97.5947 410.62 99.5573 410.108 101.52C409.596 103.483 409.34 106 409.34 109.072V148.496C409.34 159.419 406.396 167.696 400.508 173.328C394.705 179.045 386.257 181.904 375.164 181.904ZM377.852 140.56C382.631 140.56 386.3 138.853 388.86 135.44C391.42 131.941 392.7 127.717 392.7 122.768V121.488C392.7 116.112 391.377 111.845 388.732 108.688C386.172 105.445 382.375 103.824 377.34 103.824C372.647 103.824 369.063 105.403 366.588 108.56C364.113 111.632 362.876 116.197 362.876 122.256C362.876 128.571 364.113 133.221 366.588 136.208C369.148 139.109 372.903 140.56 377.852 140.56ZM424.296 109.328C424.296 106.768 424.083 104.549 423.656 102.672C423.315 100.795 422.589 98.704 421.48 96.4L436.456 90.64C437.224 92.0053 437.907 93.6267 438.504 95.504C439.187 97.3813 439.571 99.0027 439.656 100.368C441.96 97.1253 444.349 94.6933 446.824 93.072C449.384 91.4507 452.285 90.64 455.528 90.64C458.088 90.64 460.307 90.9813 462.184 91.664C464.147 92.3467 466.195 93.4987 468.328 95.12L462.056 106.768C460.605 105.915 459.283 105.317 458.088 104.976C456.893 104.549 455.571 104.336 454.12 104.336C449.683 104.336 446.397 105.701 444.264 108.432C442.216 111.163 441.192 115.301 441.192 120.848V154H424.296V109.328ZM502.132 155.28C491.892 155.28 483.785 152.421 477.812 146.704C471.924 140.987 468.98 133.221 468.98 123.408C468.98 117.008 470.175 111.333 472.564 106.384C474.953 101.435 478.495 97.5947 483.188 94.864C487.881 92.048 493.556 90.64 500.212 90.64C506.697 90.64 512.329 92.0053 517.108 94.736C521.887 97.3813 525.513 101.051 527.988 105.744C530.463 110.352 531.7 115.515 531.7 121.232C531.7 124.048 530.761 126.224 528.884 127.76C527.092 129.211 524.575 129.936 521.332 129.936H485.748C485.748 133.435 487.241 136.251 490.228 138.384C493.3 140.517 497.268 141.584 502.132 141.584C506.143 141.584 509.513 141.029 512.244 139.92C515.06 138.725 517.535 137.061 519.668 134.928L528.116 143.888C525.3 147.472 521.673 150.288 517.236 152.336C512.799 154.299 507.764 155.28 502.132 155.28ZM514.932 116.752C514.932 112.997 513.524 109.968 510.708 107.664C507.977 105.275 504.479 104.08 500.212 104.08C496.116 104.08 492.66 105.275 489.844 107.664C487.113 109.968 485.748 112.997 485.748 116.752H514.932ZM568.459 155.28C562.4 155.28 556.683 154.213 551.307 152.08C546.016 149.861 541.366 146.704 537.355 142.608L546.827 132.496C549.728 135.568 553.014 137.915 556.683 139.536C560.352 141.157 564.278 141.968 568.459 141.968C571.104 141.968 573.11 141.584 574.475 140.816C575.84 139.963 576.523 138.811 576.523 137.36C576.523 136.251 576.224 135.312 575.627 134.544C575.115 133.776 573.92 132.965 572.043 132.112C570.166 131.259 567.307 130.235 563.467 129.04C555.019 126.395 549.046 123.536 545.547 120.464C542.048 117.307 540.299 113.211 540.299 108.176C540.299 102.629 542.518 98.32 546.955 95.248C551.392 92.176 557.622 90.64 565.643 90.64C574.688 90.64 582.838 93.2 590.091 98.32L584.331 109.328C580.747 107.365 577.504 106 574.603 105.232C571.702 104.379 568.672 103.952 565.515 103.952C562.699 103.952 560.608 104.336 559.243 105.104C557.878 105.787 557.195 106.811 557.195 108.176C557.195 109.285 557.536 110.224 558.219 110.992C558.987 111.675 560.267 112.4 562.059 113.168C563.851 113.936 566.582 114.875 570.251 115.984C576.054 117.776 580.576 119.611 583.819 121.488C587.147 123.365 589.579 125.584 591.115 128.144C592.651 130.704 593.419 133.904 593.419 137.744C593.419 143.035 591.2 147.301 586.763 150.544C582.326 153.701 576.224 155.28 568.459 155.28ZM630.209 155.28C624.15 155.28 618.433 154.213 613.057 152.08C607.766 149.861 603.116 146.704 599.105 142.608L608.577 132.496C611.478 135.568 614.764 137.915 618.433 139.536C622.102 141.157 626.028 141.968 630.209 141.968C632.854 141.968 634.86 141.584 636.225 140.816C637.59 139.963 638.273 138.811 638.273 137.36C638.273 136.251 637.974 135.312 637.377 134.544C636.865 133.776 635.67 132.965 633.793 132.112C631.916 131.259 629.057 130.235 625.217 129.04C616.769 126.395 610.796 123.536 607.297 120.464C603.798 117.307 602.049 113.211 602.049 108.176C602.049 102.629 604.268 98.32 608.705 95.248C613.142 92.176 619.372 90.64 627.393 90.64C636.438 90.64 644.588 93.2 651.841 98.32L646.081 109.328C642.497 107.365 639.254 106 636.353 105.232C633.452 104.379 630.422 103.952 627.265 103.952C624.449 103.952 622.358 104.336 620.993 105.104C619.628 105.787 618.945 106.811 618.945 108.176C618.945 109.285 619.286 110.224 619.969 110.992C620.737 111.675 622.017 112.4 623.809 113.168C625.601 113.936 628.332 114.875 632.001 115.984C637.804 117.776 642.326 119.611 645.569 121.488C648.897 123.365 651.329 125.584 652.865 128.144C654.401 130.704 655.169 133.904 655.169 137.744C655.169 143.035 652.95 147.301 648.513 150.544C644.076 153.701 637.974 155.28 630.209 155.28Z" fill="#0A3960"/>
</svg>
