<svg width="642" height="192" viewBox="0 0 642 192" fill="none" xmlns="http://www.w3.org/2000/svg">
<rect y="48" width="98" height="98" rx="25" fill="#0A3960"/>
<circle cx="49.595" cy="96.8016" r="42.4534" fill="#0A3960"/>
<path d="M59.3417 124.585C52.9852 138.87 48.3134 127.458 38.2692 122.989C28.2282 118.521 16.6228 122.691 22.9793 108.405C27.1281 99.0811 39.7855 92.5467 49.8266 97.0145C59.8708 101.484 63.4905 115.261 59.3417 124.585ZM33.726 82.3567C33.0855 87.1681 30.0263 90.7315 26.8942 90.3151C23.7588 89.8973 21.7396 85.6585 22.3802 80.8471C23.0176 76.0343 26.0767 72.4709 29.2134 72.8855C32.3442 73.3051 34.3666 77.5453 33.726 82.3567ZM80.1867 106.633C77.0011 110.301 72.4779 111.587 70.0827 109.505C67.6893 107.429 68.3319 102.767 71.5207 99.1012C74.7049 95.4369 79.2264 94.1466 81.6215 96.2278C84.0136 98.3076 83.3723 102.966 80.1867 106.633ZM54.8597 76.8147C53.3348 83.3818 49.0552 87.9979 45.3014 87.1255C41.549 86.2499 39.7427 80.2199 41.2707 73.6542C42.7988 67.0885 47.0784 62.4724 50.8322 63.3448C54.5828 64.2158 56.3878 70.2489 54.8597 76.8147ZM72.8635 87.7956C68.9447 93.2823 63.2268 95.9147 60.0923 93.6762C56.9577 91.4378 57.5922 85.1731 61.5109 79.6864C65.4282 74.2028 71.1476 71.5673 74.2821 73.8057C77.4153 76.0473 76.7822 82.3089 72.8635 87.7956Z" fill="white"/>
<path d="M155.592 54.4C160.029 54.4 164.168 55.68 168.008 58.24C171.933 60.8 175.091 64.256 177.48 68.608C179.869 72.96 181.064 77.824 181.064 83.2C181.064 88.4907 179.869 93.312 177.48 97.664C175.091 102.016 171.933 105.515 168.008 108.16C164.168 110.72 160.029 112 155.592 112H132.04L133.32 109.696V136.192C133.32 138.411 132.637 140.288 131.272 141.824C129.907 143.275 128.115 144 125.896 144C123.763 144 122.013 143.275 120.648 141.824C119.283 140.288 118.6 138.411 118.6 136.192V62.208C118.6 59.9893 119.325 58.1547 120.776 56.704C122.312 55.168 124.189 54.4 126.408 54.4H155.592ZM155.592 97.408C157.213 97.408 158.792 96.7253 160.328 95.36C161.864 93.9947 163.144 92.2453 164.168 90.112C165.192 87.8933 165.704 85.5893 165.704 83.2C165.704 80.7253 165.192 78.4213 164.168 76.288C163.144 74.1547 161.864 72.448 160.328 71.168C158.792 69.8027 157.213 69.12 155.592 69.12H131.784L133.32 66.816V99.456L131.912 97.408H155.592ZM244.764 74.24C246.983 74.24 248.817 74.9653 250.268 76.416C251.719 77.8667 252.444 79.744 252.444 82.048V136.192C252.444 138.411 251.719 140.288 250.268 141.824C248.817 143.275 246.983 144 244.764 144C242.545 144 240.711 143.275 239.26 141.824C237.809 140.288 237.084 138.411 237.084 136.192V129.92L239.9 131.072C239.9 132.181 239.303 133.547 238.108 135.168C236.913 136.704 235.292 138.24 233.244 139.776C231.196 141.312 228.764 142.635 225.948 143.744C223.217 144.768 220.231 145.28 216.988 145.28C211.1 145.28 205.767 143.787 200.988 140.8C196.209 137.728 192.412 133.547 189.596 128.256C186.865 122.88 185.5 116.736 185.5 109.824C185.5 102.827 186.865 96.6827 189.596 91.392C192.412 86.016 196.167 81.8347 200.86 78.848C205.553 75.776 210.759 74.24 216.476 74.24C220.145 74.24 223.516 74.7947 226.588 75.904C229.66 77.0133 232.305 78.4213 234.524 80.128C236.828 81.8347 238.577 83.584 239.772 85.376C241.052 87.0827 241.692 88.5333 241.692 89.728L237.084 91.392V82.048C237.084 79.8293 237.809 77.9947 239.26 76.544C240.711 75.008 242.545 74.24 244.764 74.24ZM218.908 131.2C222.663 131.2 225.948 130.261 228.764 128.384C231.58 126.507 233.756 123.947 235.292 120.704C236.913 117.461 237.724 113.835 237.724 109.824C237.724 105.728 236.913 102.059 235.292 98.816C233.756 95.5733 231.58 93.0133 228.764 91.136C225.948 89.2587 222.663 88.32 218.908 88.32C215.239 88.32 211.996 89.2587 209.18 91.136C206.364 93.0133 204.145 95.5733 202.524 98.816C200.988 102.059 200.22 105.728 200.22 109.824C200.22 113.835 200.988 117.461 202.524 120.704C204.145 123.947 206.364 126.507 209.18 128.384C211.996 130.261 215.239 131.2 218.908 131.2ZM342.053 75.52C344.016 75.52 345.722 76.288 347.173 77.824C348.624 79.2747 349.349 81.152 349.349 83.456C349.349 84.0533 349.306 84.608 349.221 85.12C349.136 85.5467 349.008 85.9733 348.837 86.4L329.253 139.136C328.656 140.843 327.589 142.165 326.053 143.104C324.517 143.957 322.896 144.256 321.189 144C318.288 143.829 316.112 142.208 314.661 139.136L301.989 102.656L305.317 102.784L293.413 139.136C291.962 142.208 289.786 143.829 286.885 144C285.264 144.256 283.642 143.957 282.021 143.104C280.485 142.165 279.418 140.843 278.821 139.136L259.237 86.4C258.896 85.4613 258.725 84.48 258.725 83.456C258.725 81.408 259.408 79.5733 260.773 77.952C262.138 76.3307 264.016 75.52 266.405 75.52C268.026 75.52 269.477 75.904 270.757 76.672C272.037 77.44 272.933 78.6773 273.445 80.384L288.933 122.368L285.733 122.112L297.381 90.496C298.746 87.3387 301.093 85.76 304.421 85.76C306.298 85.76 307.706 86.1867 308.645 87.04C309.669 87.808 310.48 88.96 311.077 90.496L322.725 122.112L318.885 122.624L334.629 80.384C335.653 77.1413 338.128 75.52 342.053 75.52ZM385.647 78.08C389.487 78.08 393.071 78.7627 396.399 80.128C399.727 81.4933 402.628 83.2853 405.103 85.504C407.663 87.7227 409.626 90.112 410.991 92.672C412.442 95.232 413.167 97.7493 413.167 100.224L411.503 95.488V82.688C411.503 82.0053 411.716 81.408 412.143 80.896C412.655 80.384 413.295 80.128 414.063 80.128C414.831 80.128 415.428 80.384 415.855 80.896C416.367 81.408 416.623 82.0053 416.623 82.688V137.728C416.623 144.299 415.258 149.973 412.527 154.752C409.882 159.531 406.212 163.2 401.519 165.76C396.826 168.32 391.364 169.6 385.135 169.6C381.722 169.6 378.266 169.131 374.767 168.192C371.354 167.339 368.495 166.229 366.191 164.864C363.887 163.499 362.735 162.048 362.735 160.512C362.735 159.829 362.906 159.275 363.247 158.848C363.674 158.421 364.228 158.208 364.911 158.208C365.764 158.208 366.532 158.677 367.215 159.616C367.983 160.555 369.306 161.408 371.183 162.176C371.951 162.432 372.975 162.773 374.255 163.2C375.62 163.627 377.242 163.968 379.119 164.224C380.996 164.565 383.087 164.736 385.391 164.736C393.498 164.736 399.855 162.219 404.463 157.184C409.156 152.235 411.503 145.749 411.503 137.728V125.056L412.783 125.184C411.759 128.853 410.266 131.968 408.303 134.528C406.34 137.088 404.079 139.179 401.519 140.8C399.044 142.336 396.399 143.445 393.583 144.128C390.852 144.896 388.207 145.28 385.647 145.28C379.759 145.28 374.468 143.829 369.775 140.928C365.167 137.941 361.498 133.931 358.767 128.896C356.036 123.776 354.671 118.016 354.671 111.616C354.671 105.216 356.036 99.4987 358.767 94.464C361.498 89.344 365.167 85.3333 369.775 82.432C374.468 79.5307 379.759 78.08 385.647 78.08ZM385.903 82.944C380.954 82.944 376.474 84.1813 372.463 86.656C368.538 89.1307 365.423 92.544 363.119 96.896C360.9 101.163 359.791 106.069 359.791 111.616C359.791 117.077 360.9 121.984 363.119 126.336C365.423 130.688 368.538 134.144 372.463 136.704C376.474 139.179 380.954 140.416 385.903 140.416C390.852 140.416 395.29 139.221 399.215 136.832C403.14 134.357 406.255 130.987 408.559 126.72C410.863 122.368 412.015 117.333 412.015 111.616C412.015 105.899 410.863 100.907 408.559 96.64C406.255 92.288 403.14 88.9173 399.215 86.528C395.29 84.1387 390.852 82.944 385.903 82.944ZM435.329 144C434.561 144 433.921 143.744 433.409 143.232C432.982 142.72 432.769 142.123 432.769 141.44V82.688C432.769 82.0053 433.025 81.408 433.537 80.896C434.049 80.384 434.646 80.128 435.329 80.128C436.097 80.128 436.694 80.384 437.121 80.896C437.633 81.408 437.889 82.0053 437.889 82.688V104.32L435.713 107.648C435.713 104.32 436.268 100.949 437.377 97.536C438.572 94.1227 440.278 90.9653 442.497 88.064C444.716 85.0773 447.404 82.688 450.561 80.896C453.804 79.0187 457.516 78.08 461.697 78.08C462.892 78.08 464.172 78.2507 465.537 78.592C466.902 78.9333 467.585 79.744 467.585 81.024C467.585 81.792 467.372 82.432 466.945 82.944C466.518 83.456 465.964 83.712 465.281 83.712C464.769 83.712 464.129 83.5413 463.361 83.2C462.678 82.7733 461.654 82.56 460.289 82.56C457.558 82.56 454.87 83.3707 452.225 84.992C449.58 86.6133 447.148 88.7893 444.929 91.52C442.796 94.1653 441.089 97.0667 439.809 100.224C438.529 103.381 437.889 106.453 437.889 109.44V141.44C437.889 142.123 437.633 142.72 437.121 143.232C436.609 143.744 436.012 144 435.329 144ZM500.699 145.28C494.299 145.28 488.624 143.915 483.675 141.184C478.811 138.453 474.971 134.613 472.155 129.664C469.339 124.629 467.931 118.741 467.931 112C467.931 104.832 469.296 98.7307 472.027 93.696C474.843 88.6613 478.427 84.8213 482.779 82.176C487.216 79.4453 491.91 78.08 496.859 78.08C500.443 78.08 503.942 78.6773 507.355 79.872C510.768 80.9813 513.798 82.7733 516.443 85.248C519.174 87.6373 521.35 90.6667 522.971 94.336C524.678 97.92 525.616 102.229 525.787 107.264C525.787 107.947 525.531 108.587 525.019 109.184C524.507 109.696 523.91 109.952 523.227 109.952H471.003L470.235 105.088H521.819L520.539 106.24V103.936C520.112 99.4133 518.662 95.616 516.187 92.544C513.798 89.472 510.896 87.168 507.483 85.632C504.07 84.0107 500.528 83.2 496.859 83.2C494.299 83.2 491.611 83.7973 488.795 84.992C485.979 86.1013 483.376 87.8507 480.987 90.24C478.598 92.544 476.635 95.488 475.099 99.072C473.648 102.656 472.923 106.837 472.923 111.616C472.923 116.821 473.947 121.6 475.995 125.952C478.128 130.304 481.243 133.803 485.339 136.448C489.52 139.093 494.64 140.416 500.699 140.416C503.6 140.416 506.331 139.947 508.891 139.008C511.451 137.984 513.755 136.661 515.803 135.04C517.851 133.419 519.515 131.669 520.795 129.792C521.478 129.024 522.203 128.64 522.971 128.64C523.568 128.64 524.08 128.896 524.507 129.408C524.934 129.835 525.147 130.347 525.147 130.944C525.147 131.541 524.976 132.053 524.635 132.48C521.99 135.893 518.576 138.88 514.395 141.44C510.299 144 505.734 145.28 500.699 145.28ZM534.32 133.76C533.723 132.736 533.424 131.925 533.424 131.328C533.509 130.645 533.851 130.091 534.448 129.664C534.875 129.237 535.429 129.067 536.112 129.152C536.88 129.152 537.52 129.451 538.032 130.048C540.251 133.205 543.067 135.765 546.48 137.728C549.979 139.691 554.075 140.672 558.768 140.672C561.584 140.672 564.272 140.203 566.832 139.264C569.477 138.325 571.611 136.917 573.232 135.04C574.939 133.163 575.792 130.859 575.792 128.128C575.792 125.227 574.981 122.923 573.36 121.216C571.739 119.424 569.648 118.016 567.088 116.992C564.528 115.968 561.84 115.115 559.024 114.432C556.037 113.664 553.179 112.811 550.448 111.872C547.803 110.848 545.456 109.611 543.408 108.16C541.36 106.624 539.739 104.832 538.544 102.784C537.349 100.736 536.752 98.304 536.752 95.488C536.752 92.16 537.648 89.1733 539.44 86.528C541.232 83.8827 543.749 81.8347 546.992 80.384C550.235 78.848 553.989 78.08 558.256 78.08C560.304 78.08 562.48 78.336 564.784 78.848C567.088 79.36 569.392 80.256 571.696 81.536C574 82.7307 576.133 84.4373 578.096 86.656C578.779 87.168 579.077 87.808 578.992 88.576C578.992 89.2587 578.693 89.8987 578.096 90.496C577.584 90.8373 577.029 91.008 576.432 91.008C575.835 91.008 575.323 90.752 574.896 90.24C572.677 87.7653 570.075 85.9307 567.088 84.736C564.187 83.5413 561.072 82.944 557.744 82.944C554.928 82.944 552.283 83.4133 549.808 84.352C547.419 85.2907 545.456 86.6987 543.92 88.576C542.384 90.368 541.616 92.672 541.616 95.488C541.787 98.1333 542.683 100.309 544.304 102.016C546.011 103.723 548.229 105.131 550.96 106.24C553.776 107.349 556.933 108.373 560.432 109.312C563.248 109.995 565.851 110.805 568.24 111.744C570.715 112.597 572.848 113.707 574.64 115.072C576.517 116.437 577.968 118.144 578.992 120.192C580.101 122.24 580.656 124.8 580.656 127.872C580.656 131.456 579.675 134.571 577.712 137.216C575.835 139.776 573.189 141.781 569.776 143.232C566.448 144.597 562.608 145.28 558.256 145.28C553.819 145.28 549.552 144.384 545.456 142.592C541.36 140.8 537.648 137.856 534.32 133.76ZM588.7 133.76C588.103 132.736 587.804 131.925 587.804 131.328C587.889 130.645 588.231 130.091 588.828 129.664C589.255 129.237 589.809 129.067 590.492 129.152C591.26 129.152 591.9 129.451 592.412 130.048C594.631 133.205 597.447 135.765 600.86 137.728C604.359 139.691 608.455 140.672 613.148 140.672C615.964 140.672 618.652 140.203 621.212 139.264C623.857 138.325 625.991 136.917 627.612 135.04C629.319 133.163 630.172 130.859 630.172 128.128C630.172 125.227 629.361 122.923 627.74 121.216C626.119 119.424 624.028 118.016 621.468 116.992C618.908 115.968 616.22 115.115 613.404 114.432C610.417 113.664 607.559 112.811 604.828 111.872C602.183 110.848 599.836 109.611 597.788 108.16C595.74 106.624 594.119 104.832 592.924 102.784C591.729 100.736 591.132 98.304 591.132 95.488C591.132 92.16 592.028 89.1733 593.82 86.528C595.612 83.8827 598.129 81.8347 601.372 80.384C604.615 78.848 608.369 78.08 612.636 78.08C614.684 78.08 616.86 78.336 619.164 78.848C621.468 79.36 623.772 80.256 626.076 81.536C628.38 82.7307 630.513 84.4373 632.476 86.656C633.159 87.168 633.457 87.808 633.372 88.576C633.372 89.2587 633.073 89.8987 632.476 90.496C631.964 90.8373 631.409 91.008 630.812 91.008C630.215 91.008 629.703 90.752 629.276 90.24C627.057 87.7653 624.455 85.9307 621.468 84.736C618.567 83.5413 615.452 82.944 612.124 82.944C609.308 82.944 606.663 83.4133 604.188 84.352C601.799 85.2907 599.836 86.6987 598.3 88.576C596.764 90.368 595.996 92.672 595.996 95.488C596.167 98.1333 597.063 100.309 598.684 102.016C600.391 103.723 602.609 105.131 605.34 106.24C608.156 107.349 611.313 108.373 614.812 109.312C617.628 109.995 620.231 110.805 622.62 111.744C625.095 112.597 627.228 113.707 629.02 115.072C630.897 116.437 632.348 118.144 633.372 120.192C634.481 122.24 635.036 124.8 635.036 127.872C635.036 131.456 634.055 134.571 632.092 137.216C630.215 139.776 627.569 141.781 624.156 143.232C620.828 144.597 616.988 145.28 612.636 145.28C608.199 145.28 603.932 144.384 599.836 142.592C595.74 140.8 592.028 137.856 588.7 133.76Z" fill="#0A3960"/>
</svg>
