<svg width="677" height="192" viewBox="0 0 677 192" fill="none" xmlns="http://www.w3.org/2000/svg">
<rect x="2.15503" y="28.7861" width="121" height="121" rx="35" transform="rotate(0.648612 2.15503 28.7861)" fill="white"/>
<circle cx="62.7041" cy="89.7302" r="52.417" transform="rotate(2.01919 62.7041 89.7302)" fill="white"/>
<path d="M69.1044 65.0359L69.1043 65.0364C68.0576 68.918 66.2213 72.1412 64.1495 74.2238C62.0551 76.3292 59.8895 77.1242 58.0885 76.6386L69.1044 65.0359ZM69.1044 65.0359C70.153 61.1554 70.188 57.4453 69.4459 54.6024C68.6955 51.7278 67.2244 49.9513 65.4258 49.4663L65.4256 49.4662M69.1044 65.0359L65.4256 49.4662M65.4256 49.4662C63.6244 48.9801 61.4584 49.775 59.3631 51.8806C57.2908 53.9631 55.4535 57.1859 54.4049 61.0667C53.3564 64.9472 53.3218 68.6563 54.0646 71.4988M65.4256 49.4662L54.0646 71.4988M54.0646 71.4988C54.8155 74.3727 56.2875 76.1507 58.0883 76.6385L54.0646 71.4988ZM82.9254 85.6193C80.185 86.7659 77.8803 86.6737 76.4024 85.5376C74.9245 84.4016 74.2429 82.1975 74.6465 79.2538C75.0456 76.3426 76.4942 72.9265 78.9448 69.7391C81.3945 66.5536 84.323 64.2758 87.0336 63.1414C89.774 61.9945 92.0787 62.0858 93.5564 63.2212L82.9254 85.6193ZM82.9254 85.6193C85.6356 84.4854 88.5641 82.2077 91.0147 79.0202M82.9254 85.6193L91.0147 79.0202M91.0147 79.0202C93.4653 75.8328 94.9134 72.4177 95.3123 69.507M91.0147 79.0202L95.3123 69.507M95.3123 69.507C95.7156 66.5646 95.0344 64.36 93.5572 63.2218L95.3123 69.507ZM30.8032 69.0257L30.803 69.0264C30.3307 71.8181 30.6491 74.4249 31.4945 76.3724C32.3442 78.3297 33.6595 79.5017 35.1417 79.7527C36.6218 80.0028 38.249 79.3288 39.6955 77.7593C41.1345 76.1979 42.2931 73.8407 42.7654 71.0491C43.2376 68.2577 42.9184 65.6503 42.0727 63.7019C41.2225 61.7432 39.9072 60.5705 38.4278 60.3187C36.9446 60.0698 35.3162 60.7451 33.8703 62.3142C32.4312 63.8759 31.2736 66.2334 30.8032 69.0257ZM88.1134 105.565L88.1139 105.566C89.2188 106.596 90.9546 106.933 93.0292 106.421C95.0935 105.912 97.3609 104.583 99.293 102.511C101.225 100.439 102.393 98.0839 102.757 95.9891C103.124 93.8838 102.668 92.1761 101.565 91.1467C100.461 90.1164 98.7259 89.7813 96.6518 90.2936C94.588 90.8034 92.3214 92.1332 90.39 94.2037L90.3897 94.204C88.4559 96.2752 87.2865 98.6304 86.9215 100.725C86.5547 102.831 87.0105 104.538 88.1134 105.565ZM48.0281 120.652C51.187 122.193 53.8777 124.264 56.2289 126.176C56.6211 126.496 57.0017 126.808 57.3722 127.113C59.2654 128.668 60.8935 130.006 62.4385 130.856C64.2294 131.842 65.6814 132.046 67.1412 131.262C68.7232 130.412 70.5242 128.301 72.6234 123.998C75.2646 118.584 75.6792 111.72 73.9348 105.474C72.192 99.2338 68.3287 93.7249 62.5421 90.9018C56.7575 88.0796 50.0389 88.4259 44.0484 90.8933C38.0528 93.3629 32.8974 97.9149 30.2562 103.329C28.1569 107.632 27.6022 110.35 27.9057 112.12C28.1858 113.754 29.2407 114.772 31.1196 115.576C32.7406 116.271 34.7967 116.73 37.1877 117.265C37.6554 117.37 38.1359 117.477 38.6284 117.59C41.5827 118.265 44.8702 119.111 48.0281 120.652Z" fill="#102F47" stroke="#102F47" stroke-width="2"/>
<path d="M192.464 54.4C196.987 54.4 201.168 55.6373 205.008 58.112C208.848 60.5013 211.92 63.7867 214.224 67.968C216.528 72.1493 217.68 76.8427 217.68 82.048C217.68 87.2533 216.528 91.9893 214.224 96.256C211.92 100.437 208.848 103.808 205.008 106.368C201.168 108.843 196.987 110.08 192.464 110.08H167.76L168.784 108.032V137.472C168.784 139.349 168.187 140.928 166.992 142.208C165.883 143.403 164.389 144 162.512 144C160.72 144 159.227 143.403 158.032 142.208C156.923 140.928 156.368 139.349 156.368 137.472V60.928C156.368 59.0507 157.008 57.5147 158.288 56.32C159.568 55.04 161.104 54.4 162.896 54.4H192.464ZM192.464 97.792C194.683 97.792 196.688 97.0667 198.48 95.616C200.357 94.1653 201.851 92.2453 202.96 89.856C204.155 87.4667 204.752 84.864 204.752 82.048C204.752 79.232 204.155 76.672 202.96 74.368C201.851 72.064 200.357 70.2293 198.48 68.864C196.688 67.4133 194.683 66.688 192.464 66.688H167.504L168.784 64.768V99.456L167.632 97.792H192.464ZM281.258 75.648C283.135 75.648 284.671 76.288 285.866 77.568C287.061 78.7627 287.658 80.2987 287.658 82.176V137.472C287.658 139.349 287.061 140.928 285.866 142.208C284.671 143.403 283.135 144 281.258 144C279.466 144 277.93 143.403 276.65 142.208C275.455 140.928 274.858 139.349 274.858 137.472V128.256L277.546 128.64C277.546 130.176 276.906 131.883 275.626 133.76C274.431 135.637 272.767 137.472 270.634 139.264C268.501 140.971 265.983 142.421 263.082 143.616C260.181 144.725 257.066 145.28 253.738 145.28C247.85 145.28 242.559 143.787 237.866 140.8C233.173 137.728 229.461 133.547 226.73 128.256C223.999 122.965 222.634 116.949 222.634 110.208C222.634 103.296 223.999 97.2373 226.73 92.032C229.461 86.7413 233.13 82.6027 237.738 79.616C242.431 76.6293 247.637 75.136 253.354 75.136C257.023 75.136 260.394 75.7333 263.466 76.928C266.623 78.1227 269.354 79.6587 271.658 81.536C273.962 83.4133 275.711 85.4187 276.906 87.552C278.186 89.6 278.826 91.5627 278.826 93.44L274.858 93.824V82.176C274.858 80.384 275.455 78.848 276.65 77.568C277.93 76.288 279.466 75.648 281.258 75.648ZM255.146 133.504C259.157 133.504 262.698 132.48 265.77 130.432C268.842 128.384 271.231 125.611 272.938 122.112C274.645 118.528 275.498 114.56 275.498 110.208C275.498 105.771 274.645 101.803 272.938 98.304C271.231 94.8053 268.842 92.032 265.77 89.984C262.698 87.936 259.157 86.912 255.146 86.912C251.221 86.912 247.722 87.936 244.65 89.984C241.663 92.032 239.274 94.8053 237.482 98.304C235.775 101.803 234.922 105.771 234.922 110.208C234.922 114.56 235.775 118.528 237.482 122.112C239.274 125.611 241.663 128.384 244.65 130.432C247.722 132.48 251.221 133.504 255.146 133.504ZM378.184 76.032C379.805 76.032 381.213 76.672 382.408 77.952C383.688 79.1467 384.328 80.7253 384.328 82.688C384.328 83.1147 384.285 83.5413 384.2 83.968C384.115 84.3947 383.987 84.7787 383.816 85.12L364.232 139.904C363.72 141.355 362.824 142.464 361.544 143.232C360.264 143.915 358.941 144.171 357.576 144C355.101 143.829 353.267 142.464 352.072 139.904L337.608 101.504L340.552 101.76L327.24 139.904C326.045 142.464 324.211 143.829 321.736 144C320.456 144.171 319.133 143.915 317.768 143.232C316.488 142.464 315.592 141.355 315.08 139.904L295.368 85.12C295.027 84.352 294.856 83.5413 294.856 82.688C294.856 80.896 295.411 79.36 296.52 78.08C297.715 76.7147 299.293 76.032 301.256 76.032C302.621 76.032 303.816 76.3733 304.84 77.056C305.949 77.7387 306.717 78.7627 307.144 80.128L323.528 126.336L320.584 126.08L333.896 91.136C335.005 88.4907 336.968 87.168 339.784 87.168C341.32 87.168 342.515 87.5093 343.368 88.192C344.221 88.8747 344.904 89.856 345.416 91.136L358.984 126.208L355.528 126.592L372.04 80.128C372.893 77.3973 374.941 76.032 378.184 76.032ZM420.897 78.08C424.737 78.08 428.321 78.7627 431.649 80.128C434.977 81.4933 437.878 83.2853 440.353 85.504C442.913 87.7227 444.876 90.112 446.241 92.672C447.692 95.232 448.417 97.7493 448.417 100.224L446.753 95.488V82.688C446.753 82.0053 446.966 81.408 447.393 80.896C447.905 80.384 448.545 80.128 449.313 80.128C450.081 80.128 450.678 80.384 451.105 80.896C451.617 81.408 451.873 82.0053 451.873 82.688V137.728C451.873 144.299 450.508 149.973 447.777 154.752C445.132 159.531 441.462 163.2 436.769 165.76C432.076 168.32 426.614 169.6 420.385 169.6C416.972 169.6 413.516 169.131 410.017 168.192C406.604 167.339 403.745 166.229 401.441 164.864C399.137 163.499 397.985 162.048 397.985 160.512C397.985 159.829 398.156 159.275 398.497 158.848C398.924 158.421 399.478 158.208 400.161 158.208C401.014 158.208 401.782 158.677 402.465 159.616C403.233 160.555 404.556 161.408 406.433 162.176C407.201 162.432 408.225 162.773 409.505 163.2C410.87 163.627 412.492 163.968 414.369 164.224C416.246 164.565 418.337 164.736 420.641 164.736C428.748 164.736 435.105 162.219 439.713 157.184C444.406 152.235 446.753 145.749 446.753 137.728V125.056L448.033 125.184C447.009 128.853 445.516 131.968 443.553 134.528C441.59 137.088 439.329 139.179 436.769 140.8C434.294 142.336 431.649 143.445 428.833 144.128C426.102 144.896 423.457 145.28 420.897 145.28C415.009 145.28 409.718 143.829 405.025 140.928C400.417 137.941 396.748 133.931 394.017 128.896C391.286 123.776 389.921 118.016 389.921 111.616C389.921 105.216 391.286 99.4987 394.017 94.464C396.748 89.344 400.417 85.3333 405.025 82.432C409.718 79.5307 415.009 78.08 420.897 78.08ZM421.153 82.944C416.204 82.944 411.724 84.1813 407.713 86.656C403.788 89.1307 400.673 92.544 398.369 96.896C396.15 101.163 395.041 106.069 395.041 111.616C395.041 117.077 396.15 121.984 398.369 126.336C400.673 130.688 403.788 134.144 407.713 136.704C411.724 139.179 416.204 140.416 421.153 140.416C426.102 140.416 430.54 139.221 434.465 136.832C438.39 134.357 441.505 130.987 443.809 126.72C446.113 122.368 447.265 117.333 447.265 111.616C447.265 105.899 446.113 100.907 443.809 96.64C441.505 92.288 438.39 88.9173 434.465 86.528C430.54 84.1387 426.102 82.944 421.153 82.944ZM470.579 144C469.811 144 469.171 143.744 468.659 143.232C468.232 142.72 468.019 142.123 468.019 141.44V82.688C468.019 82.0053 468.275 81.408 468.787 80.896C469.299 80.384 469.896 80.128 470.579 80.128C471.347 80.128 471.944 80.384 472.371 80.896C472.883 81.408 473.139 82.0053 473.139 82.688V104.32L470.963 107.648C470.963 104.32 471.518 100.949 472.627 97.536C473.822 94.1227 475.528 90.9653 477.747 88.064C479.966 85.0773 482.654 82.688 485.811 80.896C489.054 79.0187 492.766 78.08 496.947 78.08C498.142 78.08 499.422 78.2507 500.787 78.592C502.152 78.9333 502.835 79.744 502.835 81.024C502.835 81.792 502.622 82.432 502.195 82.944C501.768 83.456 501.214 83.712 500.531 83.712C500.019 83.712 499.379 83.5413 498.611 83.2C497.928 82.7733 496.904 82.56 495.539 82.56C492.808 82.56 490.12 83.3707 487.475 84.992C484.83 86.6133 482.398 88.7893 480.179 91.52C478.046 94.1653 476.339 97.0667 475.059 100.224C473.779 103.381 473.139 106.453 473.139 109.44V141.44C473.139 142.123 472.883 142.72 472.371 143.232C471.859 143.744 471.262 144 470.579 144ZM535.949 145.28C529.549 145.28 523.874 143.915 518.925 141.184C514.061 138.453 510.221 134.613 507.405 129.664C504.589 124.629 503.181 118.741 503.181 112C503.181 104.832 504.546 98.7307 507.277 93.696C510.093 88.6613 513.677 84.8213 518.029 82.176C522.466 79.4453 527.16 78.08 532.109 78.08C535.693 78.08 539.192 78.6773 542.605 79.872C546.018 80.9813 549.048 82.7733 551.693 85.248C554.424 87.6373 556.6 90.6667 558.221 94.336C559.928 97.92 560.866 102.229 561.037 107.264C561.037 107.947 560.781 108.587 560.269 109.184C559.757 109.696 559.16 109.952 558.477 109.952H506.253L505.485 105.088H557.069L555.789 106.24V103.936C555.362 99.4133 553.912 95.616 551.437 92.544C549.048 89.472 546.146 87.168 542.733 85.632C539.32 84.0107 535.778 83.2 532.109 83.2C529.549 83.2 526.861 83.7973 524.045 84.992C521.229 86.1013 518.626 87.8507 516.237 90.24C513.848 92.544 511.885 95.488 510.349 99.072C508.898 102.656 508.173 106.837 508.173 111.616C508.173 116.821 509.197 121.6 511.245 125.952C513.378 130.304 516.493 133.803 520.589 136.448C524.77 139.093 529.89 140.416 535.949 140.416C538.85 140.416 541.581 139.947 544.141 139.008C546.701 137.984 549.005 136.661 551.053 135.04C553.101 133.419 554.765 131.669 556.045 129.792C556.728 129.024 557.453 128.64 558.221 128.64C558.818 128.64 559.33 128.896 559.757 129.408C560.184 129.835 560.397 130.347 560.397 130.944C560.397 131.541 560.226 132.053 559.885 132.48C557.24 135.893 553.826 138.88 549.645 141.44C545.549 144 540.984 145.28 535.949 145.28ZM569.57 133.76C568.973 132.736 568.674 131.925 568.674 131.328C568.759 130.645 569.101 130.091 569.698 129.664C570.125 129.237 570.679 129.067 571.362 129.152C572.13 129.152 572.77 129.451 573.282 130.048C575.501 133.205 578.317 135.765 581.73 137.728C585.229 139.691 589.325 140.672 594.018 140.672C596.834 140.672 599.522 140.203 602.082 139.264C604.727 138.325 606.861 136.917 608.482 135.04C610.189 133.163 611.042 130.859 611.042 128.128C611.042 125.227 610.231 122.923 608.61 121.216C606.989 119.424 604.898 118.016 602.338 116.992C599.778 115.968 597.09 115.115 594.274 114.432C591.287 113.664 588.429 112.811 585.698 111.872C583.053 110.848 580.706 109.611 578.658 108.16C576.61 106.624 574.989 104.832 573.794 102.784C572.599 100.736 572.002 98.304 572.002 95.488C572.002 92.16 572.898 89.1733 574.69 86.528C576.482 83.8827 578.999 81.8347 582.242 80.384C585.485 78.848 589.239 78.08 593.506 78.08C595.554 78.08 597.73 78.336 600.034 78.848C602.338 79.36 604.642 80.256 606.946 81.536C609.25 82.7307 611.383 84.4373 613.346 86.656C614.029 87.168 614.327 87.808 614.242 88.576C614.242 89.2587 613.943 89.8987 613.346 90.496C612.834 90.8373 612.279 91.008 611.682 91.008C611.085 91.008 610.573 90.752 610.146 90.24C607.927 87.7653 605.325 85.9307 602.338 84.736C599.437 83.5413 596.322 82.944 592.994 82.944C590.178 82.944 587.533 83.4133 585.058 84.352C582.669 85.2907 580.706 86.6987 579.17 88.576C577.634 90.368 576.866 92.672 576.866 95.488C577.037 98.1333 577.933 100.309 579.554 102.016C581.261 103.723 583.479 105.131 586.21 106.24C589.026 107.349 592.183 108.373 595.682 109.312C598.498 109.995 601.101 110.805 603.49 111.744C605.965 112.597 608.098 113.707 609.89 115.072C611.767 116.437 613.218 118.144 614.242 120.192C615.351 122.24 615.906 124.8 615.906 127.872C615.906 131.456 614.925 134.571 612.962 137.216C611.085 139.776 608.439 141.781 605.026 143.232C601.698 144.597 597.858 145.28 593.506 145.28C589.069 145.28 584.802 144.384 580.706 142.592C576.61 140.8 572.898 137.856 569.57 133.76ZM623.95 133.76C623.353 132.736 623.054 131.925 623.054 131.328C623.139 130.645 623.481 130.091 624.078 129.664C624.505 129.237 625.059 129.067 625.742 129.152C626.51 129.152 627.15 129.451 627.662 130.048C629.881 133.205 632.697 135.765 636.11 137.728C639.609 139.691 643.705 140.672 648.398 140.672C651.214 140.672 653.902 140.203 656.462 139.264C659.107 138.325 661.241 136.917 662.862 135.04C664.569 133.163 665.422 130.859 665.422 128.128C665.422 125.227 664.611 122.923 662.99 121.216C661.369 119.424 659.278 118.016 656.718 116.992C654.158 115.968 651.47 115.115 648.654 114.432C645.667 113.664 642.809 112.811 640.078 111.872C637.433 110.848 635.086 109.611 633.038 108.16C630.99 106.624 629.369 104.832 628.174 102.784C626.979 100.736 626.382 98.304 626.382 95.488C626.382 92.16 627.278 89.1733 629.07 86.528C630.862 83.8827 633.379 81.8347 636.622 80.384C639.865 78.848 643.619 78.08 647.886 78.08C649.934 78.08 652.11 78.336 654.414 78.848C656.718 79.36 659.022 80.256 661.326 81.536C663.63 82.7307 665.763 84.4373 667.726 86.656C668.409 87.168 668.707 87.808 668.622 88.576C668.622 89.2587 668.323 89.8987 667.726 90.496C667.214 90.8373 666.659 91.008 666.062 91.008C665.465 91.008 664.953 90.752 664.526 90.24C662.307 87.7653 659.705 85.9307 656.718 84.736C653.817 83.5413 650.702 82.944 647.374 82.944C644.558 82.944 641.913 83.4133 639.438 84.352C637.049 85.2907 635.086 86.6987 633.55 88.576C632.014 90.368 631.246 92.672 631.246 95.488C631.417 98.1333 632.313 100.309 633.934 102.016C635.641 103.723 637.859 105.131 640.59 106.24C643.406 107.349 646.563 108.373 650.062 109.312C652.878 109.995 655.481 110.805 657.87 111.744C660.345 112.597 662.478 113.707 664.27 115.072C666.147 116.437 667.598 118.144 668.622 120.192C669.731 122.24 670.286 124.8 670.286 127.872C670.286 131.456 669.305 134.571 667.342 137.216C665.465 139.776 662.819 141.781 659.406 143.232C656.078 144.597 652.238 145.28 647.886 145.28C643.449 145.28 639.182 144.384 635.086 142.592C630.99 140.8 627.278 137.856 623.95 133.76Z" fill="white"/>
</svg>
