<svg width="679" height="192" viewBox="0 0 679 192" fill="none" xmlns="http://www.w3.org/2000/svg">
<rect x="2.15503" y="28.7861" width="121" height="121" rx="25" transform="rotate(0.648612 2.15503 28.7861)" fill="#0A3960"/>
<circle cx="62.7041" cy="89.7302" r="52.417" transform="rotate(2.01919 62.7041 89.7302)" fill="#0A3960"/>
<path d="M73.5222 124.437C65.0573 141.788 59.789 127.502 47.5897 121.55C35.3941 115.601 20.8925 120.241 29.3574 102.89C34.8823 91.5656 50.785 84.0532 62.9806 90.003C75.1799 95.9547 79.0471 113.112 73.5222 124.437ZM43.7513 71.2159C42.7516 77.1249 38.8219 81.3888 34.9751 80.7388C31.1245 80.0868 28.8173 74.7686 29.817 68.8596C30.8129 62.9487 34.7427 58.6848 38.5952 59.3328C42.44 59.9868 44.7511 65.3069 43.7513 71.2159ZM100.024 103.193C95.934 107.58 90.2968 108.969 87.4318 106.297C84.5688 103.631 85.5646 97.9065 89.6588 93.5216C93.7473 89.1386 99.3825 87.7432 102.247 90.4154C105.109 93.0858 104.115 98.806 100.024 103.193ZM70.0698 65.2968C67.9025 73.3338 62.421 78.8436 57.827 77.6038C53.2349 76.3601 51.2684 68.841 53.4395 60.8058C55.6107 52.7707 61.0922 47.2609 65.6862 48.5008C70.2763 49.7387 72.241 57.2616 70.0698 65.2968ZM91.8075 79.6297C86.7334 86.2295 79.5633 89.2288 75.7929 86.3304C72.0225 83.432 73.0779 75.7293 78.152 69.1296C83.2242 62.5338 90.3962 59.5305 94.1666 62.4289C97.9352 65.3312 96.8816 73.03 91.8075 79.6297Z" fill="white"/>
<path d="M192.592 54.4C197.029 54.4 201.168 55.68 205.008 58.24C208.933 60.8 212.091 64.256 214.48 68.608C216.869 72.96 218.064 77.824 218.064 83.2C218.064 88.4907 216.869 93.312 214.48 97.664C212.091 102.016 208.933 105.515 205.008 108.16C201.168 110.72 197.029 112 192.592 112H169.04L170.32 109.696V136.192C170.32 138.411 169.637 140.288 168.272 141.824C166.907 143.275 165.115 144 162.896 144C160.763 144 159.013 143.275 157.648 141.824C156.283 140.288 155.6 138.411 155.6 136.192V62.208C155.6 59.9893 156.325 58.1547 157.776 56.704C159.312 55.168 161.189 54.4 163.408 54.4H192.592ZM192.592 97.408C194.213 97.408 195.792 96.7253 197.328 95.36C198.864 93.9947 200.144 92.2453 201.168 90.112C202.192 87.8933 202.704 85.5893 202.704 83.2C202.704 80.7253 202.192 78.4213 201.168 76.288C200.144 74.1547 198.864 72.448 197.328 71.168C195.792 69.8027 194.213 69.12 192.592 69.12H168.784L170.32 66.816V99.456L168.912 97.408H192.592ZM281.764 74.24C283.983 74.24 285.817 74.9653 287.268 76.416C288.719 77.8667 289.444 79.744 289.444 82.048V136.192C289.444 138.411 288.719 140.288 287.268 141.824C285.817 143.275 283.983 144 281.764 144C279.545 144 277.711 143.275 276.26 141.824C274.809 140.288 274.084 138.411 274.084 136.192V129.92L276.9 131.072C276.9 132.181 276.303 133.547 275.108 135.168C273.913 136.704 272.292 138.24 270.244 139.776C268.196 141.312 265.764 142.635 262.948 143.744C260.217 144.768 257.231 145.28 253.988 145.28C248.1 145.28 242.767 143.787 237.988 140.8C233.209 137.728 229.412 133.547 226.596 128.256C223.865 122.88 222.5 116.736 222.5 109.824C222.5 102.827 223.865 96.6827 226.596 91.392C229.412 86.016 233.167 81.8347 237.86 78.848C242.553 75.776 247.759 74.24 253.476 74.24C257.145 74.24 260.516 74.7947 263.588 75.904C266.66 77.0133 269.305 78.4213 271.524 80.128C273.828 81.8347 275.577 83.584 276.772 85.376C278.052 87.0827 278.692 88.5333 278.692 89.728L274.084 91.392V82.048C274.084 79.8293 274.809 77.9947 276.26 76.544C277.711 75.008 279.545 74.24 281.764 74.24ZM255.908 131.2C259.663 131.2 262.948 130.261 265.764 128.384C268.58 126.507 270.756 123.947 272.292 120.704C273.913 117.461 274.724 113.835 274.724 109.824C274.724 105.728 273.913 102.059 272.292 98.816C270.756 95.5733 268.58 93.0133 265.764 91.136C262.948 89.2587 259.663 88.32 255.908 88.32C252.239 88.32 248.996 89.2587 246.18 91.136C243.364 93.0133 241.145 95.5733 239.524 98.816C237.988 102.059 237.22 105.728 237.22 109.824C237.22 113.835 237.988 117.461 239.524 120.704C241.145 123.947 243.364 126.507 246.18 128.384C248.996 130.261 252.239 131.2 255.908 131.2ZM379.053 75.52C381.016 75.52 382.722 76.288 384.173 77.824C385.624 79.2747 386.349 81.152 386.349 83.456C386.349 84.0533 386.306 84.608 386.221 85.12C386.136 85.5467 386.008 85.9733 385.837 86.4L366.253 139.136C365.656 140.843 364.589 142.165 363.053 143.104C361.517 143.957 359.896 144.256 358.189 144C355.288 143.829 353.112 142.208 351.661 139.136L338.989 102.656L342.317 102.784L330.413 139.136C328.962 142.208 326.786 143.829 323.885 144C322.264 144.256 320.642 143.957 319.021 143.104C317.485 142.165 316.418 140.843 315.821 139.136L296.237 86.4C295.896 85.4613 295.725 84.48 295.725 83.456C295.725 81.408 296.408 79.5733 297.773 77.952C299.138 76.3307 301.016 75.52 303.405 75.52C305.026 75.52 306.477 75.904 307.757 76.672C309.037 77.44 309.933 78.6773 310.445 80.384L325.933 122.368L322.733 122.112L334.381 90.496C335.746 87.3387 338.093 85.76 341.421 85.76C343.298 85.76 344.706 86.1867 345.645 87.04C346.669 87.808 347.48 88.96 348.077 90.496L359.725 122.112L355.885 122.624L371.629 80.384C372.653 77.1413 375.128 75.52 379.053 75.52ZM422.647 78.08C426.487 78.08 430.071 78.7627 433.399 80.128C436.727 81.4933 439.628 83.2853 442.103 85.504C444.663 87.7227 446.626 90.112 447.991 92.672C449.442 95.232 450.167 97.7493 450.167 100.224L448.503 95.488V82.688C448.503 82.0053 448.716 81.408 449.143 80.896C449.655 80.384 450.295 80.128 451.063 80.128C451.831 80.128 452.428 80.384 452.855 80.896C453.367 81.408 453.623 82.0053 453.623 82.688V137.728C453.623 144.299 452.258 149.973 449.527 154.752C446.882 159.531 443.212 163.2 438.519 165.76C433.826 168.32 428.364 169.6 422.135 169.6C418.722 169.6 415.266 169.131 411.767 168.192C408.354 167.339 405.495 166.229 403.191 164.864C400.887 163.499 399.735 162.048 399.735 160.512C399.735 159.829 399.906 159.275 400.247 158.848C400.674 158.421 401.228 158.208 401.911 158.208C402.764 158.208 403.532 158.677 404.215 159.616C404.983 160.555 406.306 161.408 408.183 162.176C408.951 162.432 409.975 162.773 411.255 163.2C412.62 163.627 414.242 163.968 416.119 164.224C417.996 164.565 420.087 164.736 422.391 164.736C430.498 164.736 436.855 162.219 441.463 157.184C446.156 152.235 448.503 145.749 448.503 137.728V125.056L449.783 125.184C448.759 128.853 447.266 131.968 445.303 134.528C443.34 137.088 441.079 139.179 438.519 140.8C436.044 142.336 433.399 143.445 430.583 144.128C427.852 144.896 425.207 145.28 422.647 145.28C416.759 145.28 411.468 143.829 406.775 140.928C402.167 137.941 398.498 133.931 395.767 128.896C393.036 123.776 391.671 118.016 391.671 111.616C391.671 105.216 393.036 99.4987 395.767 94.464C398.498 89.344 402.167 85.3333 406.775 82.432C411.468 79.5307 416.759 78.08 422.647 78.08ZM422.903 82.944C417.954 82.944 413.474 84.1813 409.463 86.656C405.538 89.1307 402.423 92.544 400.119 96.896C397.9 101.163 396.791 106.069 396.791 111.616C396.791 117.077 397.9 121.984 400.119 126.336C402.423 130.688 405.538 134.144 409.463 136.704C413.474 139.179 417.954 140.416 422.903 140.416C427.852 140.416 432.29 139.221 436.215 136.832C440.14 134.357 443.255 130.987 445.559 126.72C447.863 122.368 449.015 117.333 449.015 111.616C449.015 105.899 447.863 100.907 445.559 96.64C443.255 92.288 440.14 88.9173 436.215 86.528C432.29 84.1387 427.852 82.944 422.903 82.944ZM472.329 144C471.561 144 470.921 143.744 470.409 143.232C469.982 142.72 469.769 142.123 469.769 141.44V82.688C469.769 82.0053 470.025 81.408 470.537 80.896C471.049 80.384 471.646 80.128 472.329 80.128C473.097 80.128 473.694 80.384 474.121 80.896C474.633 81.408 474.889 82.0053 474.889 82.688V104.32L472.713 107.648C472.713 104.32 473.268 100.949 474.377 97.536C475.572 94.1227 477.278 90.9653 479.497 88.064C481.716 85.0773 484.404 82.688 487.561 80.896C490.804 79.0187 494.516 78.08 498.697 78.08C499.892 78.08 501.172 78.2507 502.537 78.592C503.902 78.9333 504.585 79.744 504.585 81.024C504.585 81.792 504.372 82.432 503.945 82.944C503.518 83.456 502.964 83.712 502.281 83.712C501.769 83.712 501.129 83.5413 500.361 83.2C499.678 82.7733 498.654 82.56 497.289 82.56C494.558 82.56 491.87 83.3707 489.225 84.992C486.58 86.6133 484.148 88.7893 481.929 91.52C479.796 94.1653 478.089 97.0667 476.809 100.224C475.529 103.381 474.889 106.453 474.889 109.44V141.44C474.889 142.123 474.633 142.72 474.121 143.232C473.609 143.744 473.012 144 472.329 144ZM537.699 145.28C531.299 145.28 525.624 143.915 520.675 141.184C515.811 138.453 511.971 134.613 509.155 129.664C506.339 124.629 504.931 118.741 504.931 112C504.931 104.832 506.296 98.7307 509.027 93.696C511.843 88.6613 515.427 84.8213 519.779 82.176C524.216 79.4453 528.91 78.08 533.859 78.08C537.443 78.08 540.942 78.6773 544.355 79.872C547.768 80.9813 550.798 82.7733 553.443 85.248C556.174 87.6373 558.35 90.6667 559.971 94.336C561.678 97.92 562.616 102.229 562.787 107.264C562.787 107.947 562.531 108.587 562.019 109.184C561.507 109.696 560.91 109.952 560.227 109.952H508.003L507.235 105.088H558.819L557.539 106.24V103.936C557.112 99.4133 555.662 95.616 553.187 92.544C550.798 89.472 547.896 87.168 544.483 85.632C541.07 84.0107 537.528 83.2 533.859 83.2C531.299 83.2 528.611 83.7973 525.795 84.992C522.979 86.1013 520.376 87.8507 517.987 90.24C515.598 92.544 513.635 95.488 512.099 99.072C510.648 102.656 509.923 106.837 509.923 111.616C509.923 116.821 510.947 121.6 512.995 125.952C515.128 130.304 518.243 133.803 522.339 136.448C526.52 139.093 531.64 140.416 537.699 140.416C540.6 140.416 543.331 139.947 545.891 139.008C548.451 137.984 550.755 136.661 552.803 135.04C554.851 133.419 556.515 131.669 557.795 129.792C558.478 129.024 559.203 128.64 559.971 128.64C560.568 128.64 561.08 128.896 561.507 129.408C561.934 129.835 562.147 130.347 562.147 130.944C562.147 131.541 561.976 132.053 561.635 132.48C558.99 135.893 555.576 138.88 551.395 141.44C547.299 144 542.734 145.28 537.699 145.28ZM571.32 133.76C570.723 132.736 570.424 131.925 570.424 131.328C570.509 130.645 570.851 130.091 571.448 129.664C571.875 129.237 572.429 129.067 573.112 129.152C573.88 129.152 574.52 129.451 575.032 130.048C577.251 133.205 580.067 135.765 583.48 137.728C586.979 139.691 591.075 140.672 595.768 140.672C598.584 140.672 601.272 140.203 603.832 139.264C606.477 138.325 608.611 136.917 610.232 135.04C611.939 133.163 612.792 130.859 612.792 128.128C612.792 125.227 611.981 122.923 610.36 121.216C608.739 119.424 606.648 118.016 604.088 116.992C601.528 115.968 598.84 115.115 596.024 114.432C593.037 113.664 590.179 112.811 587.448 111.872C584.803 110.848 582.456 109.611 580.408 108.16C578.36 106.624 576.739 104.832 575.544 102.784C574.349 100.736 573.752 98.304 573.752 95.488C573.752 92.16 574.648 89.1733 576.44 86.528C578.232 83.8827 580.749 81.8347 583.992 80.384C587.235 78.848 590.989 78.08 595.256 78.08C597.304 78.08 599.48 78.336 601.784 78.848C604.088 79.36 606.392 80.256 608.696 81.536C611 82.7307 613.133 84.4373 615.096 86.656C615.779 87.168 616.077 87.808 615.992 88.576C615.992 89.2587 615.693 89.8987 615.096 90.496C614.584 90.8373 614.029 91.008 613.432 91.008C612.835 91.008 612.323 90.752 611.896 90.24C609.677 87.7653 607.075 85.9307 604.088 84.736C601.187 83.5413 598.072 82.944 594.744 82.944C591.928 82.944 589.283 83.4133 586.808 84.352C584.419 85.2907 582.456 86.6987 580.92 88.576C579.384 90.368 578.616 92.672 578.616 95.488C578.787 98.1333 579.683 100.309 581.304 102.016C583.011 103.723 585.229 105.131 587.96 106.24C590.776 107.349 593.933 108.373 597.432 109.312C600.248 109.995 602.851 110.805 605.24 111.744C607.715 112.597 609.848 113.707 611.64 115.072C613.517 116.437 614.968 118.144 615.992 120.192C617.101 122.24 617.656 124.8 617.656 127.872C617.656 131.456 616.675 134.571 614.712 137.216C612.835 139.776 610.189 141.781 606.776 143.232C603.448 144.597 599.608 145.28 595.256 145.28C590.819 145.28 586.552 144.384 582.456 142.592C578.36 140.8 574.648 137.856 571.32 133.76ZM625.7 133.76C625.103 132.736 624.804 131.925 624.804 131.328C624.889 130.645 625.231 130.091 625.828 129.664C626.255 129.237 626.809 129.067 627.492 129.152C628.26 129.152 628.9 129.451 629.412 130.048C631.631 133.205 634.447 135.765 637.86 137.728C641.359 139.691 645.455 140.672 650.148 140.672C652.964 140.672 655.652 140.203 658.212 139.264C660.857 138.325 662.991 136.917 664.612 135.04C666.319 133.163 667.172 130.859 667.172 128.128C667.172 125.227 666.361 122.923 664.74 121.216C663.119 119.424 661.028 118.016 658.468 116.992C655.908 115.968 653.22 115.115 650.404 114.432C647.417 113.664 644.559 112.811 641.828 111.872C639.183 110.848 636.836 109.611 634.788 108.16C632.74 106.624 631.119 104.832 629.924 102.784C628.729 100.736 628.132 98.304 628.132 95.488C628.132 92.16 629.028 89.1733 630.82 86.528C632.612 83.8827 635.129 81.8347 638.372 80.384C641.615 78.848 645.369 78.08 649.636 78.08C651.684 78.08 653.86 78.336 656.164 78.848C658.468 79.36 660.772 80.256 663.076 81.536C665.38 82.7307 667.513 84.4373 669.476 86.656C670.159 87.168 670.457 87.808 670.372 88.576C670.372 89.2587 670.073 89.8987 669.476 90.496C668.964 90.8373 668.409 91.008 667.812 91.008C667.215 91.008 666.703 90.752 666.276 90.24C664.057 87.7653 661.455 85.9307 658.468 84.736C655.567 83.5413 652.452 82.944 649.124 82.944C646.308 82.944 643.663 83.4133 641.188 84.352C638.799 85.2907 636.836 86.6987 635.3 88.576C633.764 90.368 632.996 92.672 632.996 95.488C633.167 98.1333 634.063 100.309 635.684 102.016C637.391 103.723 639.609 105.131 642.34 106.24C645.156 107.349 648.313 108.373 651.812 109.312C654.628 109.995 657.231 110.805 659.62 111.744C662.095 112.597 664.228 113.707 666.02 115.072C667.897 116.437 669.348 118.144 670.372 120.192C671.481 122.24 672.036 124.8 672.036 127.872C672.036 131.456 671.055 134.571 669.092 137.216C667.215 139.776 664.569 141.781 661.156 143.232C657.828 144.597 653.988 145.28 649.636 145.28C645.199 145.28 640.932 144.384 636.836 142.592C632.74 140.8 629.028 137.856 625.7 133.76Z" fill="#0A3960"/>
</svg>
