<svg width="460" height="144" viewBox="0 0 460 144" fill="none" xmlns="http://www.w3.org/2000/svg">
<path d="M14.592 103C13.184 103 12 102.52 11.04 101.56C10.08 100.6 9.6 99.416 9.6 98.008V33.016C9.6 31.544 10.08 30.36 11.04 29.464C12 28.504 13.184 28.024 14.592 28.024H33.792C38.592 28.024 42.848 29.08 46.56 31.192C50.272 33.304 53.152 36.248 55.2 40.024C57.312 43.736 58.368 48.024 58.368 52.888C58.368 57.56 57.312 61.72 55.2 65.368C53.152 69.016 50.272 71.864 46.56 73.912C42.848 75.96 38.592 76.984 33.792 76.984H19.584V98.008C19.584 99.416 19.104 100.6 18.144 101.56C17.248 102.52 16.064 103 14.592 103ZM19.584 67.768H33.792C36.736 67.768 39.328 67.128 41.568 65.848C43.808 64.568 45.568 62.808 46.848 60.568C48.128 58.328 48.768 55.768 48.768 52.888C48.768 49.816 48.128 47.128 46.848 44.824C45.568 42.456 43.808 40.6 41.568 39.256C39.328 37.912 36.736 37.24 33.792 37.24H19.584V67.768ZM88.4655 103.384C83.7935 103.384 79.6015 102.232 75.8895 99.928C72.1775 97.56 69.2335 94.392 67.0575 90.424C64.9455 86.392 63.8895 81.848 63.8895 76.792C63.8895 71.736 65.0415 67.192 67.3455 63.16C69.7135 59.128 72.8815 55.96 76.8495 53.656C80.8815 51.288 85.3935 50.104 90.3855 50.104C95.3775 50.104 99.8575 51.288 103.826 53.656C107.794 55.96 110.93 59.128 113.234 63.16C115.602 67.192 116.786 71.736 116.786 76.792H113.042C113.042 81.848 111.954 86.392 109.778 90.424C107.666 94.392 104.754 97.56 101.042 99.928C97.3295 102.232 93.1375 103.384 88.4655 103.384ZM90.3855 94.744C93.6495 94.744 96.5615 93.976 99.1215 92.44C101.682 90.84 103.698 88.696 105.17 86.008C106.642 83.256 107.378 80.184 107.378 76.792C107.378 73.336 106.642 70.264 105.17 67.576C103.698 64.824 101.682 62.68 99.1215 61.144C96.5615 59.544 93.6495 58.744 90.3855 58.744C87.1855 58.744 84.2735 59.544 81.6495 61.144C79.0895 62.68 77.0415 64.824 75.5055 67.576C74.0335 70.264 73.2975 73.336 73.2975 76.792C73.2975 80.184 74.0335 83.256 75.5055 86.008C77.0415 88.696 79.0895 90.84 81.6495 92.44C84.2735 93.976 87.1855 94.744 90.3855 94.744ZM111.89 103.096C110.482 103.096 109.298 102.648 108.338 101.752C107.442 100.792 106.994 99.608 106.994 98.2V83.512L108.818 73.336L116.786 76.792V98.2C116.786 99.608 116.306 100.792 115.346 101.752C114.45 102.648 113.298 103.096 111.89 103.096ZM140.549 103C139.525 103 138.565 102.712 137.669 102.136C136.837 101.496 136.261 100.728 135.941 99.832L121.733 57.208C121.221 55.224 121.221 53.624 121.733 52.408C122.309 51.128 123.525 50.488 125.381 50.488C126.597 50.488 127.589 50.84 128.357 51.544C129.189 52.184 129.861 53.304 130.373 54.904L142.469 92.728H139.109L150.533 54.136C150.853 53.048 151.397 52.184 152.165 51.544C152.933 50.84 153.989 50.488 155.333 50.488C156.613 50.488 157.637 50.84 158.405 51.544C159.237 52.184 159.781 53.048 160.037 54.136L169.349 90.424H167.909L179.237 54.904C180.133 51.96 181.797 50.488 184.229 50.488C186.021 50.488 187.237 51.128 187.877 52.408C188.517 53.624 188.485 55.224 187.781 57.208L173.573 99.832C173.317 100.728 172.773 101.496 171.941 102.136C171.109 102.712 170.149 103 169.061 103C168.037 103 167.077 102.712 166.181 102.136C165.285 101.496 164.709 100.728 164.453 99.832L154.565 63.256H155.525L145.156 99.832C144.901 100.728 144.325 101.496 143.429 102.136C142.597 102.712 141.637 103 140.549 103ZM218.309 103.384C213.509 103.384 209.253 102.264 205.541 100.024C201.893 97.72 199.013 94.584 196.901 90.616C194.789 86.584 193.733 81.976 193.733 76.792C193.733 71.544 194.853 66.936 197.093 62.968C199.397 58.936 202.533 55.8 206.501 53.56C210.469 51.256 215.045 50.104 220.229 50.104C225.349 50.104 229.893 51.256 233.861 53.56C237.829 55.8 240.933 58.936 243.173 62.968C245.477 66.936 246.629 71.544 246.629 76.792H240.965C240.965 81.976 239.973 86.584 237.989 90.616C236.069 94.584 233.413 97.72 230.021 100.024C226.629 102.264 222.725 103.384 218.309 103.384ZM220.037 124.792C215.493 124.792 211.237 123.896 207.269 122.104C203.301 120.312 199.941 117.688 197.189 114.232C196.357 113.144 196.037 112.024 196.229 110.872C196.485 109.72 197.125 108.792 198.149 108.088C199.301 107.32 200.485 107.064 201.701 107.32C202.981 107.576 204.005 108.216 204.773 109.24C206.501 111.416 208.677 113.112 211.301 114.328C213.925 115.544 216.901 116.152 220.229 116.152C223.301 116.152 226.117 115.416 228.677 113.944C231.301 112.472 233.381 110.296 234.917 107.416C236.453 104.536 237.221 101.016 237.221 96.856V83.224L240.389 74.776L246.629 76.792V97.528C246.629 102.584 245.509 107.16 243.269 111.256C241.029 115.416 237.893 118.712 233.861 121.144C229.893 123.576 225.285 124.792 220.037 124.792ZM220.229 94.744C223.557 94.744 226.501 93.976 229.061 92.44C231.621 90.904 233.605 88.792 235.013 86.104C236.485 83.416 237.221 80.312 237.221 76.792C237.221 73.272 236.485 70.168 235.013 67.48C233.605 64.728 231.621 62.584 229.061 61.048C226.501 59.512 223.557 58.744 220.229 58.744C216.901 58.744 213.957 59.512 211.397 61.048C208.837 62.584 206.821 64.728 205.349 67.48C203.877 70.168 203.141 73.272 203.141 76.792C203.141 80.312 203.877 83.416 205.349 86.104C206.821 88.792 208.837 90.904 211.397 92.44C213.957 93.976 216.901 94.744 220.229 94.744ZM265.907 70.168C265.907 66.328 266.835 62.904 268.691 59.896C270.611 56.824 273.171 54.392 276.371 52.6C279.571 50.808 283.091 49.912 286.931 49.912C290.771 49.912 293.619 50.552 295.475 51.832C297.395 53.048 298.131 54.52 297.683 56.248C297.491 57.144 297.107 57.848 296.531 58.36C296.019 58.808 295.411 59.096 294.707 59.224C294.003 59.352 293.235 59.32 292.403 59.128C288.307 58.296 284.627 58.232 281.363 58.936C278.099 59.64 275.507 60.952 273.587 62.872C271.731 64.792 270.803 67.224 270.803 70.168H265.907ZM266.003 103C264.467 103 263.283 102.616 262.451 101.848C261.619 101.016 261.203 99.8 261.203 98.2V55.288C261.203 53.752 261.619 52.568 262.451 51.736C263.283 50.904 264.467 50.488 266.003 50.488C267.603 50.488 268.787 50.904 269.555 51.736C270.387 52.504 270.803 53.688 270.803 55.288V98.2C270.803 99.736 270.387 100.92 269.555 101.752C268.787 102.584 267.603 103 266.003 103ZM328.718 103.384C323.406 103.384 318.67 102.264 314.51 100.024C310.414 97.72 307.182 94.584 304.814 90.616C302.51 86.584 301.358 81.976 301.358 76.792C301.358 71.544 302.446 66.936 304.622 62.968C306.862 58.936 309.934 55.8 313.838 53.56C317.742 51.256 322.222 50.104 327.278 50.104C332.27 50.104 336.558 51.224 340.142 53.464C343.726 55.64 346.446 58.68 348.302 62.584C350.222 66.424 351.182 70.872 351.182 75.928C351.182 77.144 350.766 78.168 349.934 79C349.102 79.768 348.046 80.152 346.766 80.152H308.078V72.472H346.478L342.542 75.16C342.478 71.96 341.838 69.112 340.622 66.616C339.406 64.056 337.678 62.04 335.438 60.568C333.198 59.096 330.478 58.36 327.278 58.36C323.63 58.36 320.494 59.16 317.87 60.76C315.31 62.36 313.358 64.568 312.014 67.384C310.67 70.136 309.998 73.272 309.998 76.792C309.998 80.312 310.798 83.448 312.398 86.2C313.998 88.952 316.206 91.128 319.022 92.728C321.838 94.328 325.07 95.128 328.718 95.128C330.702 95.128 332.718 94.776 334.766 94.072C336.878 93.304 338.574 92.44 339.854 91.48C340.814 90.776 341.838 90.424 342.926 90.424C344.078 90.36 345.07 90.68 345.902 91.384C346.99 92.344 347.566 93.4 347.63 94.552C347.694 95.704 347.182 96.696 346.094 97.528C343.918 99.256 341.198 100.664 337.934 101.752C334.734 102.84 331.662 103.384 328.718 103.384ZM382.775 103.384C378.295 103.384 374.135 102.712 370.295 101.368C366.519 99.96 363.575 98.2 361.463 96.088C360.503 95.064 360.087 93.912 360.215 92.632C360.407 91.288 361.047 90.2 362.135 89.368C363.415 88.344 364.663 87.928 365.879 88.12C367.159 88.248 368.247 88.792 369.143 89.752C370.231 90.968 371.959 92.12 374.327 93.208C376.759 94.232 379.447 94.744 382.391 94.744C386.103 94.744 388.919 94.136 390.839 92.92C392.823 91.704 393.847 90.136 393.911 88.216C393.975 86.296 393.047 84.632 391.127 83.224C389.271 81.816 385.847 80.664 380.855 79.768C374.391 78.488 369.687 76.568 366.743 74.008C363.863 71.448 362.423 68.312 362.423 64.6C362.423 61.336 363.383 58.648 365.303 56.536C367.223 54.36 369.687 52.76 372.695 51.736C375.703 50.648 378.839 50.104 382.103 50.104C386.327 50.104 390.071 50.776 393.335 52.12C396.599 53.464 399.191 55.32 401.111 57.688C402.007 58.712 402.423 59.8 402.359 60.952C402.295 62.04 401.751 62.968 400.727 63.736C399.703 64.44 398.487 64.664 397.079 64.408C395.671 64.152 394.487 63.576 393.527 62.68C391.927 61.144 390.199 60.088 388.343 59.512C386.487 58.936 384.343 58.648 381.911 58.648C379.095 58.648 376.695 59.128 374.711 60.088C372.791 61.048 371.831 62.456 371.831 64.312C371.831 65.464 372.119 66.52 372.695 67.48C373.335 68.376 374.551 69.208 376.343 69.976C378.135 70.68 380.759 71.384 384.215 72.088C389.015 73.048 392.791 74.264 395.543 75.736C398.359 77.208 400.375 78.936 401.591 80.92C402.807 82.84 403.415 85.08 403.415 87.64C403.415 90.584 402.615 93.24 401.015 95.608C399.479 97.976 397.175 99.864 394.103 101.272C391.095 102.68 387.319 103.384 382.775 103.384ZM434.9 103.384C430.42 103.384 426.26 102.712 422.42 101.368C418.644 99.96 415.7 98.2 413.588 96.088C412.628 95.064 412.212 93.912 412.34 92.632C412.532 91.288 413.172 90.2 414.26 89.368C415.54 88.344 416.788 87.928 418.004 88.12C419.284 88.248 420.372 88.792 421.268 89.752C422.356 90.968 424.084 92.12 426.452 93.208C428.884 94.232 431.572 94.744 434.516 94.744C438.228 94.744 441.044 94.136 442.964 92.92C444.948 91.704 445.972 90.136 446.036 88.216C446.1 86.296 445.172 84.632 443.252 83.224C441.396 81.816 437.972 80.664 432.98 79.768C426.516 78.488 421.812 76.568 418.868 74.008C415.988 71.448 414.548 68.312 414.548 64.6C414.548 61.336 415.508 58.648 417.428 56.536C419.348 54.36 421.812 52.76 424.82 51.736C427.828 50.648 430.964 50.104 434.228 50.104C438.452 50.104 442.196 50.776 445.46 52.12C448.724 53.464 451.316 55.32 453.236 57.688C454.132 58.712 454.548 59.8 454.484 60.952C454.42 62.04 453.876 62.968 452.852 63.736C451.828 64.44 450.612 64.664 449.204 64.408C447.796 64.152 446.612 63.576 445.652 62.68C444.052 61.144 442.324 60.088 440.468 59.512C438.612 58.936 436.468 58.648 434.036 58.648C431.22 58.648 428.82 59.128 426.836 60.088C424.916 61.048 423.956 62.456 423.956 64.312C423.956 65.464 424.244 66.52 424.82 67.48C425.46 68.376 426.676 69.208 428.468 69.976C430.26 70.68 432.884 71.384 436.34 72.088C441.14 73.048 444.916 74.264 447.668 75.736C450.484 77.208 452.5 78.936 453.716 80.92C454.932 82.84 455.54 85.08 455.54 87.64C455.54 90.584 454.74 93.24 453.14 95.608C451.604 97.976 449.3 99.864 446.228 101.272C443.22 102.68 439.444 103.384 434.9 103.384Z" fill="#0A3960"/>
<circle cx="89" cy="77" r="23" fill="#0A3960"/>
<path d="M94.2804 92.052C90.8366 99.7916 88.3056 93.6085 82.8639 91.1872C77.424 88.7667 71.1365 91.0259 74.5803 83.2864C76.828 78.2349 83.6854 74.6947 89.1253 77.1153C94.567 79.5366 96.5281 87.0006 94.2804 92.052ZM80.4026 69.1741C80.0555 71.7807 78.3982 73.7113 76.7013 73.4857C75.0026 73.2594 73.9087 70.9629 74.2557 68.3562C74.601 65.7488 76.2584 63.8183 77.9578 64.0429C79.6539 64.2702 80.7496 66.5674 80.4026 69.1741ZM105.574 82.3265C103.848 84.3134 101.397 85.01 100.1 83.8824C98.8028 82.7574 99.151 80.2319 100.879 78.2457C102.604 76.2605 105.053 75.5615 106.351 76.689C107.647 77.8158 107.299 80.3396 105.574 82.3265ZM91.8521 66.1716C91.026 69.7295 88.7074 72.2303 86.6737 71.7577C84.6408 71.2833 83.6622 68.0164 84.49 64.4593C85.3179 60.9022 87.6365 58.4014 89.6702 58.874C91.7021 59.3459 92.68 62.6145 91.8521 66.1716ZM101.606 72.1207C99.483 75.0933 96.3852 76.5194 94.687 75.3067C92.9888 74.094 93.3325 70.6999 95.4556 67.7274C97.5778 64.7566 100.676 63.3287 102.375 64.5414C104.072 65.7559 103.729 69.1482 101.606 72.1207Z" fill="#F4BA41"/>
</svg>
