<svg width="1033" height="218" viewBox="0 0 1033 218" fill="none" xmlns="http://www.w3.org/2000/svg">
<rect x="2.11255" y="0.786133" width="186.65" height="186.65" rx="35" transform="rotate(0.648612 2.11255 0.786133)" fill="white"/>
<circle cx="95.5132" cy="94.796" r="80.8564" transform="rotate(2.01919 95.5132 94.796)" fill="white"/>
<path d="M45.7689 62.7679L45.7688 62.7686C45.0253 67.1633 45.521 71.293 46.8727 74.4068C48.2287 77.5305 50.3793 79.5122 52.9061 79.9401C55.4296 80.3666 58.1117 79.2024 60.4199 76.6978C62.7206 74.2014 64.5478 70.4643 65.2913 66.0697C66.0348 61.6753 65.5377 57.5448 64.1855 54.4297C62.8289 51.3043 60.6786 49.3212 58.1562 48.8921C55.6278 48.4674 52.9439 49.6331 50.6361 52.1375C48.3352 54.6345 46.5095 58.3721 45.7689 62.7679ZM134.339 119.62L134.339 119.62C136.221 121.376 139.11 121.886 142.421 121.07C145.722 120.256 149.309 118.143 152.35 114.881C155.392 111.619 157.25 107.893 157.832 104.544C158.417 101.184 157.708 98.3379 155.829 96.5841C153.947 94.829 151.059 94.3208 147.749 95.1384C144.45 95.9534 140.864 98.0671 137.824 101.327L137.823 101.327C134.779 104.588 132.919 108.314 132.335 111.664C131.75 115.024 132.459 117.869 134.339 119.62ZM105.91 56.8456L105.91 56.8451C107.547 50.7848 107.61 44.9644 106.438 40.4722C105.257 35.9482 102.897 32.9835 99.8528 32.1626L99.8526 32.1625C96.8051 31.3401 93.2725 32.7142 89.9749 36.0279C86.7002 39.3186 83.8249 44.3787 82.1873 50.4393C80.5498 56.4996 80.4875 62.3184 81.6612 66.8101C82.843 71.3331 85.2045 74.2996 88.2509 75.1249C91.2982 75.9471 94.8307 74.573 98.1273 71.2592C101.401 67.9682 104.275 62.9075 105.91 56.8456ZM72.6366 142.982C77.4502 145.33 81.5606 148.491 85.1824 151.438C85.7805 151.924 86.3632 152.403 86.9322 152.87C89.8514 155.269 92.4104 157.372 94.8418 158.71C97.6908 160.278 100.137 160.67 102.614 159.339C105.214 157.942 108.054 154.551 111.302 147.895C115.442 139.409 116.081 128.68 113.36 118.936C110.64 109.197 104.597 100.553 95.5011 96.1156C86.408 91.6794 75.8782 92.2376 66.5288 96.0885C57.1744 99.9416 49.1126 107.049 44.9725 115.535C41.7251 122.191 40.801 126.517 41.2996 129.426C41.7749 132.197 43.5895 133.884 46.5784 135.164C49.1294 136.257 52.3615 136.979 56.0486 137.803C56.767 137.964 57.5027 138.128 58.2539 138.3C62.8045 139.341 67.8245 140.634 72.6366 142.982ZM116.313 88.7588C118.814 90.6812 122.602 90.7596 126.915 88.9553C131.198 87.1635 135.787 83.5837 139.614 78.6059C143.441 73.6281 145.72 68.2735 146.351 63.6742C146.986 59.043 145.936 55.4005 143.436 53.475C140.936 51.5528 137.147 51.4755 132.833 53.2807C128.55 55.0732 123.961 58.653 120.135 63.6279C116.308 68.6056 114.028 73.9617 113.397 78.5619C112.762 83.1944 113.812 86.8365 116.313 88.7588Z" fill="#102F47" stroke="#102F47" stroke-width="2"/>
<path d="M295.676 40.2971C302.652 40.2971 309.102 42.2058 315.026 46.0231C320.949 49.7088 325.688 54.7766 329.242 61.2266C332.796 67.6766 334.573 74.9163 334.573 82.9459C334.573 90.9754 332.796 98.281 329.242 104.863C325.688 111.313 320.949 116.512 315.026 120.461C309.102 124.278 302.652 126.187 295.676 126.187H257.568L259.148 123.028V168.441C259.148 171.337 258.227 173.772 256.384 175.746C254.673 177.589 252.369 178.511 249.473 178.511C246.709 178.511 244.405 177.589 242.562 175.746C240.851 173.772 239.996 171.337 239.996 168.441V50.367C239.996 47.4711 240.983 45.1017 242.957 43.2588C244.932 41.2844 247.301 40.2971 250.065 40.2971H295.676ZM295.676 107.232C299.098 107.232 302.192 106.113 304.956 103.875C307.852 101.638 310.155 98.6759 311.867 94.9902C313.709 91.3045 314.631 87.2897 314.631 82.9459C314.631 78.602 313.709 74.653 311.867 71.099C310.155 67.5449 307.852 64.7148 304.956 62.6087C302.192 60.371 299.098 59.2521 295.676 59.2521H257.174L259.148 56.2904V109.799L257.371 107.232H295.676Z" fill="white"/>
<path d="M432.646 73.0735C435.542 73.0735 437.911 74.0607 439.754 76.0352C441.597 77.878 442.518 80.2474 442.518 83.1433V168.441C442.518 171.337 441.597 173.772 439.754 175.746C437.911 177.589 435.542 178.511 432.646 178.511C429.882 178.511 427.512 177.589 425.538 175.746C423.695 173.772 422.774 171.337 422.774 168.441V154.225L426.92 154.817C426.92 157.186 425.933 159.819 423.958 162.715C422.116 165.611 419.549 168.441 416.258 171.205C412.967 173.838 409.084 176.075 404.608 177.918C400.133 179.629 395.328 180.485 390.195 180.485C381.112 180.485 372.951 178.182 365.711 173.574C358.472 168.836 352.746 162.386 348.533 154.225C344.321 146.063 342.215 136.783 342.215 126.384C342.215 115.722 344.321 106.376 348.533 98.3468C352.746 90.1856 358.406 83.8015 365.514 79.1943C372.754 74.5872 380.783 72.2837 389.602 72.2837C395.263 72.2837 400.462 73.2051 405.201 75.0479C410.071 76.8908 414.283 79.2602 417.837 82.1561C421.392 85.052 424.09 88.1453 425.933 91.4361C427.907 94.5953 428.895 97.6228 428.895 100.519L422.774 101.111V83.1433C422.774 80.379 423.695 78.0097 425.538 76.0352C427.512 74.0607 429.882 73.0735 432.646 73.0735ZM392.367 162.32C398.553 162.32 404.016 160.74 408.755 157.581C413.494 154.422 417.179 150.144 419.812 144.747C422.445 139.218 423.761 133.098 423.761 126.384C423.761 119.54 422.445 113.419 419.812 108.022C417.179 102.625 413.494 98.3468 408.755 95.1876C404.016 92.0285 398.553 90.4489 392.367 90.4489C386.312 90.4489 380.915 92.0285 376.176 95.1876C371.569 98.3468 367.883 102.625 365.119 108.022C362.486 113.419 361.17 119.54 361.17 126.384C361.17 133.098 362.486 139.218 365.119 144.747C367.883 150.144 371.569 154.422 376.176 157.581C380.915 160.74 386.312 162.32 392.367 162.32Z" fill="white"/>
<path d="M582.16 73.6658C584.661 73.6658 586.833 74.653 588.676 76.6275C590.651 78.4704 591.638 80.9056 591.638 83.9331C591.638 84.5913 591.572 85.2494 591.44 85.9076C591.309 86.5657 591.111 87.1581 590.848 87.6846L560.639 172.192C559.849 174.43 558.467 176.141 556.492 177.326C554.518 178.379 552.477 178.774 550.371 178.511C546.554 178.247 543.724 176.141 541.881 172.192L519.569 112.958L524.111 113.353L503.576 172.192C501.733 176.141 498.903 178.247 495.086 178.511C493.111 178.774 491.071 178.379 488.965 177.326C486.99 176.141 485.608 174.43 484.819 172.192L454.412 87.6846C453.885 86.4999 453.622 85.2494 453.622 83.9331C453.622 81.1688 454.477 78.7995 456.189 76.825C458.031 74.7189 460.467 73.6658 463.494 73.6658C465.6 73.6658 467.443 74.1923 469.023 75.2454C470.734 76.2984 471.919 77.878 472.577 79.9841L497.85 151.263L493.309 150.868L513.843 96.9647C515.555 92.8841 518.582 90.8438 522.926 90.8438C525.295 90.8438 527.138 91.3703 528.455 92.4234C529.771 93.4764 530.824 94.9902 531.614 96.9647L552.543 151.065L547.212 151.658L572.683 79.9841C573.999 75.7719 577.158 73.6658 582.16 73.6658Z" fill="white"/>
<path d="M648.048 76.825C653.971 76.825 659.5 77.878 664.633 79.9841C669.767 82.0903 674.242 84.8545 678.06 88.277C682.009 91.6994 685.036 95.3851 687.142 99.334C689.38 103.283 690.499 107.166 690.499 110.983L687.932 103.678V83.9331C687.932 82.88 688.261 81.9586 688.919 81.1688C689.709 80.379 690.697 79.9841 691.881 79.9841C693.066 79.9841 693.987 80.379 694.645 81.1688C695.435 81.9586 695.83 82.88 695.83 83.9331V168.836C695.83 178.971 693.724 187.725 689.512 195.096C685.431 202.468 679.771 208.128 672.531 212.077C665.292 216.026 656.867 218 647.258 218C641.993 218 636.662 217.276 631.265 215.828C625.999 214.512 621.59 212.801 618.036 210.695C614.482 208.589 612.705 206.351 612.705 203.981C612.705 202.928 612.968 202.073 613.494 201.415C614.153 200.756 615.008 200.427 616.061 200.427C617.378 200.427 618.562 201.151 619.615 202.599C620.8 204.047 622.84 205.364 625.736 206.548C626.921 206.943 628.5 207.47 630.475 208.128C632.581 208.786 635.082 209.312 637.978 209.707C640.874 210.234 644.099 210.497 647.653 210.497C660.158 210.497 669.964 206.614 677.073 198.848C684.312 191.213 687.932 181.209 687.932 168.836V149.288L689.907 149.486C688.327 155.146 686.024 159.951 682.996 163.899C679.968 167.848 676.48 171.073 672.531 173.574C668.714 175.944 664.633 177.655 660.29 178.708C656.077 179.893 651.997 180.485 648.048 180.485C638.965 180.485 630.804 178.247 623.564 173.772C616.456 169.165 610.796 162.978 606.584 155.212C602.372 147.314 600.265 138.429 600.265 128.556C600.265 118.684 602.372 109.865 606.584 102.098C610.796 94.2004 616.456 88.0137 623.564 83.5382C630.804 79.0627 638.965 76.825 648.048 76.825ZM648.443 84.328C640.808 84.328 633.897 86.2367 627.711 90.054C621.656 93.8713 616.851 99.1366 613.297 105.85C609.875 112.431 608.163 120 608.163 128.556C608.163 136.981 609.875 144.55 613.297 151.263C616.851 157.976 621.656 163.307 627.711 167.256C633.897 171.073 640.808 172.982 648.443 172.982C656.077 172.982 662.922 171.139 668.977 167.454C675.032 163.636 679.837 158.437 683.391 151.855C686.945 145.142 688.722 137.376 688.722 128.556C688.722 119.737 686.945 112.037 683.391 105.455C679.837 98.7417 675.032 93.5422 668.977 89.8565C662.922 86.1708 656.077 84.328 648.443 84.328Z" fill="white"/>
<path d="M724.685 178.511C723.501 178.511 722.513 178.116 721.724 177.326C721.065 176.536 720.736 175.615 720.736 174.562V83.9331C720.736 82.88 721.131 81.9586 721.921 81.1688C722.711 80.379 723.632 79.9841 724.685 79.9841C725.87 79.9841 726.791 80.379 727.45 81.1688C728.239 81.9586 728.634 82.88 728.634 83.9331V117.302L725.278 122.435C725.278 117.302 726.133 112.102 727.844 106.837C729.687 101.572 732.32 96.7014 735.742 92.2259C739.165 87.6188 743.311 83.9331 748.182 81.1688C753.184 78.2729 758.91 76.825 765.36 76.825C767.202 76.825 769.177 77.0882 771.283 77.6148C773.389 78.1413 774.442 79.3918 774.442 81.3663C774.442 82.551 774.113 83.5382 773.455 84.328C772.797 85.1178 771.941 85.5127 770.888 85.5127C770.098 85.5127 769.111 85.2494 767.926 84.7229C766.873 84.0647 765.294 83.7357 763.188 83.7357C758.975 83.7357 754.829 84.9862 750.748 87.4872C746.668 89.9882 742.916 93.3448 739.494 97.557C736.203 101.638 733.57 106.113 731.596 110.983C729.621 115.854 728.634 120.593 728.634 125.2V174.562C728.634 175.615 728.239 176.536 727.45 177.326C726.66 178.116 725.738 178.511 724.685 178.511Z" fill="white"/>
<path d="M825.523 180.485C815.65 180.485 806.897 178.379 799.262 174.167C791.759 169.955 785.835 164.031 781.492 156.396C777.148 148.63 774.976 139.548 774.976 129.149C774.976 118.092 777.082 108.68 781.294 100.914C785.638 93.1473 791.167 87.2239 797.88 83.1433C804.725 78.9311 811.964 76.825 819.599 76.825C825.128 76.825 830.525 77.7464 835.79 79.5892C841.055 81.3005 845.728 84.0647 849.809 87.8821C854.021 91.5677 857.377 96.2407 859.878 101.901C862.511 107.429 863.959 114.077 864.222 121.843C864.222 122.896 863.827 123.883 863.038 124.805C862.248 125.595 861.326 125.989 860.273 125.989H779.715L778.53 118.486H858.101L856.127 120.264V116.709C855.469 109.733 853.231 103.875 849.414 99.1366C845.728 94.3978 841.253 90.8438 835.987 88.4744C830.722 85.9734 825.259 84.7229 819.599 84.7229C815.65 84.7229 811.504 85.6443 807.16 87.4872C802.816 89.1984 798.801 91.8968 795.116 95.5825C791.43 99.1366 788.402 103.678 786.033 109.206C783.795 114.735 782.676 121.185 782.676 128.556C782.676 136.586 784.256 143.957 787.415 150.67C790.706 157.384 795.51 162.781 801.829 166.861C808.279 170.942 816.177 172.982 825.523 172.982C829.998 172.982 834.21 172.258 838.159 170.81C842.108 169.231 845.662 167.19 848.821 164.689C851.981 162.188 854.547 159.49 856.522 156.594C857.575 155.409 858.694 154.817 859.878 154.817C860.8 154.817 861.59 155.212 862.248 156.002C862.906 156.66 863.235 157.45 863.235 158.371C863.235 159.292 862.972 160.082 862.445 160.74C858.365 166.006 853.099 170.613 846.649 174.562C840.331 178.511 833.289 180.485 825.523 180.485Z" fill="white"/>
<path d="M877.385 162.715C876.464 161.135 876.003 159.885 876.003 158.963C876.134 157.91 876.661 157.055 877.582 156.396C878.241 155.738 879.096 155.475 880.149 155.607C881.334 155.607 882.321 156.067 883.111 156.989C886.533 161.859 890.877 165.808 896.143 168.836C901.539 171.863 907.858 173.377 915.097 173.377C919.441 173.377 923.588 172.653 927.537 171.205C931.617 169.757 934.908 167.585 937.409 164.689C940.042 161.793 941.358 158.239 941.358 154.027C941.358 149.552 940.108 145.998 937.607 143.365C935.106 140.601 931.881 138.429 927.932 136.849C923.983 135.27 919.836 133.953 915.492 132.9C910.885 131.715 906.476 130.399 902.263 128.951C898.183 127.372 894.563 125.463 891.404 123.225C888.245 120.856 885.744 118.092 883.901 114.932C882.058 111.773 881.136 108.022 881.136 103.678C881.136 98.5442 882.519 93.9371 885.283 89.8565C888.047 85.7759 891.93 82.6168 896.932 80.379C901.934 78.0097 907.726 76.825 914.308 76.825C917.467 76.825 920.824 77.2199 924.378 78.0097C927.932 78.7995 931.486 80.1816 935.04 82.1561C938.594 83.9989 941.885 86.6316 944.912 90.054C945.965 90.8438 946.426 91.831 946.294 93.0157C946.294 94.0688 945.834 95.056 944.912 95.9774C944.122 96.5039 943.267 96.7672 942.345 96.7672C941.424 96.7672 940.634 96.3723 939.976 95.5825C936.554 91.7652 932.539 88.9351 927.932 87.0923C923.456 85.2494 918.652 84.328 913.518 84.328C909.174 84.328 905.093 85.052 901.276 86.4999C897.59 87.9479 894.563 90.1198 892.194 93.0157C889.824 95.78 888.639 99.334 888.639 103.678C888.903 107.758 890.285 111.115 892.786 113.748C895.419 116.38 898.841 118.552 903.053 120.264C907.397 121.975 912.267 123.554 917.664 125.002C922.008 126.055 926.023 127.306 929.709 128.754C933.526 130.07 936.817 131.781 939.581 133.887C942.477 135.994 944.715 138.626 946.294 141.785C948.005 144.944 948.861 148.893 948.861 153.632C948.861 159.161 947.347 163.965 944.32 168.046C941.424 171.995 937.343 175.088 932.078 177.326C926.944 179.432 921.021 180.485 914.308 180.485C907.463 180.485 900.881 179.103 894.563 176.339C888.245 173.574 882.519 169.033 877.385 162.715Z" fill="white"/>
<path d="M961.269 162.715C960.348 161.135 959.887 159.885 959.887 158.963C960.019 157.91 960.545 157.055 961.467 156.396C962.125 155.738 962.981 155.475 964.034 155.607C965.218 155.607 966.206 156.067 966.995 156.989C970.418 161.859 974.762 165.808 980.027 168.836C985.424 171.863 991.742 173.377 998.982 173.377C1003.33 173.377 1007.47 172.653 1011.42 171.205C1015.5 169.757 1018.79 167.585 1021.29 164.689C1023.93 161.793 1025.24 158.239 1025.24 154.027C1025.24 149.552 1023.99 145.998 1021.49 143.365C1018.99 140.601 1015.77 138.429 1011.82 136.849C1007.87 135.27 1003.72 133.953 999.377 132.9C994.77 131.715 990.36 130.399 986.148 128.951C982.067 127.372 978.447 125.463 975.288 123.225C972.129 120.856 969.628 118.092 967.785 114.932C965.942 111.773 965.021 108.022 965.021 103.678C965.021 98.5442 966.403 93.9371 969.167 89.8565C971.932 85.7759 975.815 82.6168 980.817 80.379C985.819 78.0097 991.611 76.825 998.192 76.825C1001.35 76.825 1004.71 77.2199 1008.26 78.0097C1011.82 78.7995 1015.37 80.1816 1018.92 82.1561C1022.48 83.9989 1025.77 86.6316 1028.8 90.054C1029.85 90.8438 1030.31 91.831 1030.18 93.0157C1030.18 94.0688 1029.72 95.056 1028.8 95.9774C1028.01 96.5039 1027.15 96.7672 1026.23 96.7672C1025.31 96.7672 1024.52 96.3723 1023.86 95.5825C1020.44 91.7652 1016.42 88.9351 1011.82 87.0923C1007.34 85.2494 1002.54 84.328 997.402 84.328C993.059 84.328 988.978 85.052 985.161 86.4999C981.475 87.9479 978.447 90.1198 976.078 93.0157C973.709 95.78 972.524 99.334 972.524 103.678C972.787 107.758 974.169 111.115 976.67 113.748C979.303 116.38 982.725 118.552 986.938 120.264C991.282 121.975 996.152 123.554 1001.55 125.002C1005.89 126.055 1009.91 127.306 1013.59 128.754C1017.41 130.07 1020.7 131.781 1023.47 133.887C1026.36 135.994 1028.6 138.626 1030.18 141.785C1031.89 144.944 1032.75 148.893 1032.75 153.632C1032.75 159.161 1031.23 163.965 1028.2 168.046C1025.31 171.995 1021.23 175.088 1015.96 177.326C1010.83 179.432 1004.91 180.485 998.192 180.485C991.347 180.485 984.766 179.103 978.447 176.339C972.129 173.574 966.403 169.033 961.269 162.715Z" fill="white"/>
</svg>
